<?xml version="1.0" encoding="utf-8"?>
<!-- Generator: Adobe Illustrator 27.0.0, SVG Export Plug-In . SVG Version: 6.00 Build 0)  -->
<svg version="1.1" id="Layer_1" xmlns="http://www.w3.org/2000/svg" xmlns:xlink="http://www.w3.org/1999/xlink" x="0px" y="0px"
	 viewBox="0 0 371 371" style="enable-background:new 0 0 371 371;" xml:space="preserve">
<style type="text/css">
	.st0{fill:#998E94;}
	.st1{fill:#0C0C0C;}
</style>
<g>
	<circle class="st0" cx="185.5" cy="185.5" r="185.5"/>
	<g>
		<path class="st1" d="M185.7,71.5c17.4,0,34.9,0,52.3,0c24.4,0,43.9,19.5,43.9,43.9c0,1.5,0,2.9,0,4.4c0,4.3,0,4.3,4.2,4.3
			c6.3,0,11.6,2.2,15.9,6.7c4,4.2,6.2,9.2,6.2,15c0,7.3,0,14.6,0,21.9c0,5.3-3.8,9-8.9,9c-4.9,0-8.6-3.9-8.6-9c0-6.7,0-13.3,0-20
			c0-4.9-3.3-7.4-8-6.1c-0.7,0.2-0.8,0.6-0.8,1.1c0,0.6,0,1.3,0,1.9c0,27.8-0.1,55.5,0,83.3c0.1,14.3-5.4,26-16.2,35.2
			c-1,0.9-1.4,1.7-1.3,3c0.1,5.3,0.1,10.6,0,15.9c-0.1,9.7-7.7,17.4-17.3,17.4c-4.5,0-8.9,0.6-13.4-0.5c-7.7-1.9-13.1-8.8-13.1-16.8
			c0-2.2-0.2-4.4,0-6.6c0.2-2.2-0.7-2.5-2.6-2.5c-21.6,0.1-43.3,0.1-64.9,0c-2.4,0-2.8,0.7-2.7,2.9c0.1,3.4,0.4,6.7-0.4,10.1
			c-2.1,8.1-8.8,13.4-17.1,13.4c-4.4,0-8.8,0.6-13.1-0.5c-7.7-1.9-13.1-8.8-13.2-16.7c0-5.3,0-10.6,0-15.9c0-1.4-0.3-2.3-1.4-3.2
			c-10.7-9-16.2-20.5-16.1-34.7c0.1-27.6,0.1-55.1-0.1-82.7c0-1.3,1.6-3.7-1.4-4c-4.5-0.4-6.8,0.9-7.2,4c-0.1,0.7-0.1,1.5-0.1,2.2
			c0,6.6,0,13.1,0,19.7c0,5.3-3.7,9.1-8.8,9.1c-5.1,0-8.7-3.8-8.8-9.1c0-7.3,0-14.6,0-21.9c0.1-11.8,9.8-21.5,21.7-21.6
			c4.6,0,4.8,0,4.6-4.7c-0.6-12.5,2.6-23.7,11-33.1c8.5-9.5,19.2-14.7,32-14.8C149.9,71.4,167.8,71.5,185.7,71.5z M106.6,148
			c0,8-0.1,16.1,0,24.1c0.1,8.5,6.1,15.9,14,17.2c14.4,2.3,28.9,3.7,43.5,4.4c27.6,1.4,55.1-0.1,82.4-3.8c12.1-1.7,17.8-8,17.8-20.3
			c0-14.7,0-29.4,0-44.1c0-11.4-7.4-18.8-18.8-18.9c-40.1,0-80.1,0-120.2,0c-11.2,0-18.7,7.5-18.7,18.6
			C106.6,132.8,106.6,140.4,106.6,148z M128.5,246.8c7,0.1,13.1-5.8,13.2-12.9c0.2-7.1-5.9-13.3-13.1-13.4
			c-7-0.1-13.1,5.8-13.2,12.9C115.2,240.6,121.3,246.7,128.5,246.8z M242.5,220.5c-7,0-13,5.9-13.1,13c-0.1,7.1,6,13.3,13.1,13.3
			c7,0,13-5.9,13.1-13C255.7,226.7,249.6,220.5,242.5,220.5z"/>
	</g>
</g>
</svg>
