<?xml version="1.0" encoding="utf-8"?>
<!-- Generator: Adobe Illustrator 27.0.0, SVG Export Plug-In . SVG Version: 6.00 Build 0)  -->
<svg version="1.1" id="Layer_1" xmlns="http://www.w3.org/2000/svg" xmlns:xlink="http://www.w3.org/1999/xlink" x="0px" y="0px"
	 viewBox="0 0 912.3 391" style="enable-background:new 0 0 912.3 391;" xml:space="preserve">
<style type="text/css">
	.st0{fill:#019241;}
	.st1{fill:#020201;}
	.st2{fill:#019240;}
	.st3{fill:#BAA118;}
	.st4{fill:#029241;}
	.st5{fill:#039342;}
	.st6{fill:#FE0202;}
	.st7{fill:#E47212;}
	.st8{fill:#030504;}
	.st9{fill:#BCA41E;}
	.st10{fill:#089544;}
	.st11{fill:#0E9749;}
	.st12{fill:#019040;}
	.st13{fill:#F7F8F8;}
	.st14{fill:#F2F9F5;}
</style>
<g>
	<path class="st0" d="M720.8,85.2c32.2,0,64.3,0,96.5,0c3.1,0,5.9,0.6,8.6,1.9c19.4,8.9,31.5,24.4,37.8,44.2
		c16.4,51.6,32.1,103.5,48.2,155.2c1.4,4.4-0.6,4.5-3.7,4.2c-4.5-0.4-8.6-2.4-12.7-4.4c-16.2-7.7-28.1-17.7-32.5-37.3
		c-7-30.5-17.6-60.3-26.6-90.3c-1.9-6.4-5-12.3-8.2-18.1c-6.5-11.9-14.9-18.1-30.1-17.7c-53,1.1-106,0.5-158.9,0.4
		c-3.5,0-6.1,0.7-8.2,3.5c-1.8,2.4-3.7,4.7-5.4,7.1c-10.2,14.5-4.3,26.5,6.9,36.2c1.4,1.2,2.9,1.4,4.6,1.4
		c21.8,0.3,43.6,0.7,65.4-0.1c2.6-0.1,4.8,0.7,7,2c17.1,10.7,25.4,26.7,29.5,46c5.9,27.6-15.1,57.6-37.3,66.1
		c-3.4,1.3-6.7,1.7-10.2,1.6c-21.5-0.5-42.9-0.9-64.4-1.3c-30.8-0.5-61.6-1-92.4-1.5c-2.2,0-4,0.1-3.6-3c1.2-9.6,3.1-19.1,8.8-27.3
		c5.7-8.2,12.9-13.2,23.7-12.8c40.4,1.2,80.9,2,121.3,3c6.4,0.2,15.1-7.6,16.6-15c1.2-5.6-3.5-13.9-9.4-16.2
		c-1.3-0.5-2.9-0.5-4.4-0.5c-17.8,0-35.7-0.5-53.5,0.1c-11.2,0.4-20.3-3.6-28.1-10.7c-20.5-18.7-26.9-42.1-20.8-68.9
		c3.5-15.5,10.3-29.5,22.7-40.1c5.8-5,12-7.9,20.3-7.8C659.1,85.5,689.9,85.2,720.8,85.2z"/>
	<path class="st1" d="M281.9,275c-10.2,14-18.2,29.3-25.9,44.7c-11,21.8-20.3,44.3-27.2,67.8c-0.7,2.3-1.2,4.2-4.7,3.3
		c-25.3-6.7-50.3-14.4-74.8-23.9c-0.6-0.2-1.1-0.7-2.1-1.3c16.1-25.3,30.8-51.4,51.3-73.5c1.8-2,2.2-2.9,0.1-4.9
		c-3-2.8-5.6-6.1-8.6-9.6c-16,21.3-31.3,41.6-46.5,62c-4.1,5.5-8.2,10.9-12.3,16.4c-1,1.4-1.6,2.6-3.9,1.5
		c-16.8-8.1-33.3-16.7-46.5-30.4c-5.3-5.6-5.2-5.7,0.2-11c44.1-43.1,92.1-81.2,144.7-113.3c0.8,0.8,1.7,1.6,2.5,2.4
		c9.9,10.1,23.6,9.6,32.7-1.3c5.9-7,6.7-15.3,5.7-24c5.1-2.5,10.2-5,15.3-7.5c0.6,0.8,1.1,0.1,1.6-0.2c10.4-5.4,21.3-9.9,32.5-13.5
		c2.9-0.9,5.8-1,7.9,1.3c2.6,2.9,5.5,5.8,6.4,9.9c-17.1,10.2-34.2,20.5-51.4,30.8c7.7,6.2,7.7,6.2,15.6,1.6
		c13.5-8.1,27-16.1,40.5-24.2c3.6,7.4,7.7,14.5,9.4,22.7c-7.2,6.8-14.6,13.5-21.1,21c-0.4,0.2-0.9,0.4-1.3,0.8
		c-14.4,14.9-26.4,31.8-38.9,48.2C282,272,281.8,273.5,281.9,275z M250.6,238c8.2-7.5,16.3-15,24.8-22.8c-2.2-1.2-4.3-1.9-6-3.2
		c-3.7-2.7-6.5-2-10,0.8c-10.4,8.3-21.1,16.2-31.7,24.2c-7.9,6-15.8,12.1-23.9,18.3c4.1,3.3,7.9,6.2,11.6,9.3c2,1.8,3.6,1.9,5.4-0.2
		c0.8-1,2-1.7,3-2.5c-0.1,9.7,2.8,18.1,11,23.8c6.6,4.6,13.8,5.5,21.2,1.7c8.8-4.5,13.1-12.1,13.8-21.6
		C270.8,252.8,264.7,244.2,250.6,238z"/>
	<path class="st2" d="M330.2,169.9c-0.9-4.1-3.7-7-6.4-9.9c-2.1-2.4-5-2.3-7.9-1.3c-11.2,3.6-22,8.1-32.5,13.5
		c-0.5,0.3-0.9,1-1.6,0.2c-0.7-13.8-1.4-27.6,0.1-41.4c1.4-12.9,3.4-25.8,10.2-37.2c6.7-11.1,18.7-16.2,29.2-12.6
		c5.3,1.9,9.5,5.3,13.2,9.5c10.8,12.1,17.4,26.6,24.2,41.1c1.7,3.6,3.4,7.2,5.1,10.7c3.9,11.1,8.5,22,13.5,32.7
		c3.7,9.7,8,18.9,15,27.1c0.5-12.4,0.9-24.8,1.4-37.2c0.1-1.9,1.8-2.3,3-2.9c10.6-5.1,21.1-10.2,31.7-15.4c1.1-0.5,2.1-0.9,3.3-0.4
		c-1.9,8-1.6,16.1-2,24.2c-1.2,28.9-1.7,57.8-7,86.4c-1.5,8.2-3.5,16.2-7.6,23.6c-5.6,10.2-13.7,12-23.1,5.1
		c-7.5-5.6-12.6-13.2-17.3-21.1c-10.9-18.3-18.8-38-27.2-57.5c-1-2.2-1.2-4.9-3.5-6.4c-1.7-8.2-5.8-15.3-9.4-22.7
		C333.6,175.2,332.7,172.1,330.2,169.9z"/>
	<path class="st3" d="M409.8,51c-22.2-13.3-46.4-19.6-71.2-23.8c-33.4-5.7-67.2-8-101-6.7C174.9,23,119.5,44,74.9,89.3
		c-29.7,30.2-46.4,66.6-51.1,109c-3.7,33.3,6.2,62.4,23,90c1.1,1.8,2.1,3.6,2.8,5.7c-9.8-5.7-18.3-12.9-25.8-21.3
		C10,257.2,3.9,238.4,1.7,218.2c-2.7-24.3-3-48.5,4.8-72.1c10.6-31.9,30-57.8,55.1-79.4c44.1-38,95.7-59.7,153.3-64.9
		c49.4-4.5,98.5-0.6,145.5,17.5c16.9,6.5,32.3,15.6,46.3,27.2C408,47.5,410.1,48.1,409.8,51z"/>
	<path class="st4" d="M822.7,251.3c-9.8,0.1-19.6-0.2-29.4,0.6c-2.9,0.2-4.4,1.4-5.8,3.7c-7.8,13.3-17.4,24.7-32,31.1
		c-5.9,2.6-12,3.6-18.4,3.6c-4.2,0-5.1-0.9-3.3-5c10.6-23.5,21-47,31.3-70.6c11.6-26.5,23.1-53,34.4-79.6c1.4-3.2,2.9-3.4,5.6-2.4
		c10.4,3.8,15.6,12.4,20.5,21.4c1.6,2.9,1.7,5.6,0.4,8.9c-5.3,13.1-10,26.4-15.2,39.5c-1.4,3.5-0.6,4.2,2.9,4.1
		c8.2-0.2,16.3,0,24.5-0.1c2.8-0.1,4,0.7,4.8,3.6c3.3,12.5,6.9,25,10.4,37.4c0.8,2.8,0.3,3.8-2.8,3.8
		C841.4,251.2,832.1,251.3,822.7,251.3z"/>
	<path class="st5" d="M393.1,137.1c1-9.4,2.1-18.8,2.8-28.3c1.1-15.1,12.4-25.6,27.7-25.5c39,0.2,77.9,0.3,116.9,0.3
		c14.3,0,28.6,0,42.9-0.4c4.7-0.1,5.1,1.5,4.1,5.5c-2.3,9.6-5.1,18.9-11.1,27c-3.3,4.5-7.3,6.9-13.4,6.8
		c-32.3-0.3-64.6-0.2-96.9-0.1c-8.8,0-17.6,0.8-26.4,0.5c-5.5-0.2-7.5,2-7.6,6.9c0,1.3,0,2.7-0.1,4c-2.8,0.3-5.6,0.8-8.4,1
		C413.5,135.3,403.4,137.7,393.1,137.1z"/>
	<path class="st2" d="M479.4,209.2c0-24.1,0.1-48.3-0.1-72.4c0-3.7,0.9-4.8,4.7-4.7c10.6,0.3,21.3,0.2,32,0.1c2.5,0,3.7,0.2,3.6,3.4
		c-1,42.7-1.8,85.5-2.8,128.2c-0.3,12.7-11.3,23.2-24,23.2c-4.3,0-9.8,1.9-12.5-0.8c-2.7-2.7-0.8-8.2-0.9-12.5
		C479.4,252.1,479.4,230.7,479.4,209.2z"/>
	<path class="st6" d="M267,114.7c0.1,11.1-6.2,21-15.5,24.5c-8.4,3.2-17.8,0.9-23.8-6.4c-7.3-8.9-8.6-18.9-4.2-29.4
		c4.4-10.5,14.9-16.2,24.8-14C259.1,91.9,266.9,102.5,267,114.7z"/>
	<path class="st7" d="M266.6,179.9c1,8.7,0.2,17-5.7,24c-9.1,10.8-22.8,11.3-32.7,1.3c-0.8-0.8-1.7-1.6-2.5-2.4
		c-4.6-8.4-6.3-17-2.8-26.3c3.4-9.1,11.1-15.1,20-15.5c10.2-0.4,16.9,4.7,21.3,13.5C265.1,176.2,265.8,178.1,266.6,179.9z"/>
	<path class="st8" d="M393.1,137.1c10.3,0.6,20.4-1.8,30.6-2.3c2.8-0.1,5.6-0.7,8.4-1c10.2,0,20.3,0,30.5,0c1.2,0,3-0.8,3.2,1.2
		c0.2,1.8-1.7,1.3-2.6,1.5c-10.6,2.8-20.9,6.4-31.2,10c-1.2-0.6-2.2-0.2-3.3,0.4c-10.6,5.1-21.1,10.2-31.7,15.4
		c-1.3,0.6-2.9,1-3,2.9c-5.8,2.9-11.1,6.5-16.4,10.1c-5-10.7-9.6-21.5-13.5-32.7C373.6,140.6,383.2,138.1,393.1,137.1z M374.6,160.3
		c0.6-0.2,1-0.3,1.5-0.5c8.5-3.1,17-6.3,25.6-9.4c1.6-0.6,3.5-0.9,2.1-3.2c-0.9-1.6-1.1-4-4.2-2.8c-8.8,3.3-17.7,6.5-26.6,9.7
		c-1.3,0.5-2.8,0.9-1.7,2.6C372.1,158.1,372,160.5,374.6,160.3z"/>
	<path class="st5" d="M281.9,275c0-1.5,0.2-3,1.1-4.2c12.5-16.5,24.5-33.3,38.9-48.2c0.3-0.3,0.8-0.5,1.3-0.8
		c2.9,28.8-8.3,58.6-35.8,66.6c-6.5,1.9-6.4,2-5.9-4.5C281.7,281,281.7,278,281.9,275z"/>
	<path class="st9" d="M435.3,307c-2.8,8.5-8,15-13.8,21.1c-16.3,17.2-36.2,29.2-57.8,38.4c-25.4,10.9-51.8,18.1-79.7,18.2
		c-0.9,0-1.8,0-3-0.8C339.7,372.8,393.1,351.3,435.3,307z"/>
	<path class="st10" d="M489.2,333c-3.5,3-7,6-10.5,8.9c-2,1.6-1.9,3-0.5,5c3.7,5.4,7.2,11,11,16.8c-5.5,1.5-9.2,0.6-11.4-4.8
		c-1.3-3.3-3.6-6.3-5.6-9.6c-4.3,2.6-6.4,6.1-5.6,11c0.4,2.4,0,4-3.3,4c-3.2,0-3.3-1.5-3.3-3.9c0.1-8.5,0.1-17,0-25.5
		c0-2.5,0.3-3.9,3.4-3.9c3.4,0,3.3,1.9,3.2,4.1c-0.1,3.1,0,6.2,0,10.6c3.6-3.8,6.5-6.5,8.8-9.6C478.5,332,482.4,330.1,489.2,333z"/>
	<path class="st10" d="M756.7,341.7c0-2.3,0.1-4.8,0-7.2c-0.1-2.2,0.4-3.3,3-3.3c2.8-0.1,3.3,1,3.3,3.5c-0.1,8.8-0.2,17.6,0,26.4
		c0.1,3.9-2.9,4.2-4.2,3c-2.5-2.4-4-0.6-6,0.1c-1.2,0.5-2.6,0.8-3.9,0.7c-4.4-0.5-7.4-3.2-8.5-7.4c-1.4-5.3-1.6-10.7,2.7-14.9
		c3.2-3.1,7.1-3.4,11-1.4C754.8,341.6,755.4,342.3,756.7,341.7z M745.9,351.9c0.3,3.6,0.5,7.4,5.1,8c3.1,0.4,5.7-2.9,5.6-7.4
		c-0.1-3.5-0.5-7.4-5.3-7.5C746.9,345,746.4,348.6,745.9,351.9z"/>
	<path class="st10" d="M549.1,362.5c0,2.7-0.1,4.9,0,7c0.2,2.6-0.3,3.9-3.4,3.9c-3.2,0-2.8-1.8-2.8-3.9c0-8.5,0-16.9,0-25.4
		c0-3.3,2.6-5.2,4.9-3.2c1.8,1.6,2.5,1.3,4,0.2c1.9-1.4,4.1-1.3,6.2-0.9c4.4,0.9,6.9,4.1,7.6,8.3c0.9,5.4,0.7,10.8-4.2,14.5
		c-3.4,2.6-7,2.6-10.6,0.1C550.5,362.9,550,362.8,549.1,362.5z M549,351.8c0,4.9,2.4,8.4,5.5,8.1c4.4-0.4,5-3.9,5.1-7.3
		c0.2-4.7-2.1-7.7-5.4-7.5C549.8,345.4,549.2,348.8,549,351.8z"/>
	<path class="st11" d="M503.9,354.3c-1.2,0-2.4-0.1-3.5,0c-1.4,0.2-4-1-4,1.4c0,2.5,1.8,4.3,4.6,4.2c0.8,0,1.9-0.2,2.2-0.8
		c1.7-2.7,4-2.4,6.5-1.8c0.7,0.2,1.3,0.7,1,1.4c-1,2.6-2.9,4.4-5.6,5.3c-4.8,1.6-9.3,0.9-12.9-2.8c-3.3-3.5-3.9-10.6-1.5-15.5
		c2.3-4.6,6.2-6.2,11.2-5.7c5.7,0.5,10.1,6,9.8,12c-0.1,1.8-0.8,2.3-2.4,2.2C507.6,354.3,505.7,354.3,503.9,354.3z M500.5,350.5
		c1.4-1,4.4,1.5,4.5-2c0-2.2-1.8-3.4-4-3.5c-2.5-0.1-4.4,1.3-4.5,3.6C496.3,351.6,499.1,349.6,500.5,350.5z"/>
	<path class="st11" d="M888.6,354.3c-1,0-2-0.1-3,0c-1.5,0.2-3.6-0.9-4.5,0.9c-0.8,1.5,0.6,2.8,1.7,3.8c1.6,1.3,3.7,1.8,5,0.3
		c2.1-2.5,4.3-2.7,7-1.7c0.8,0.3,1,0.9,0.7,1.5c-1.3,2.6-3.3,4.5-6.3,5.2c-4.9,1.2-9.3,0.5-12.6-3.5c-3.2-3.9-3.5-10.8-0.8-15.5
		c2.5-4.5,6.6-5.8,11.4-5.2c5.5,0.7,10,7,9.2,12.4c-0.2,1.6-1.1,1.8-2.4,1.8C892.2,354.3,890.4,354.3,888.6,354.3z M885,350.4
		c1.4-1,4.4,1.5,4.6-1.7c0.2-2.4-1.8-3.7-4.3-3.7c-2.6,0-4.3,1.5-4.3,3.8C881.1,351.5,883.6,349.7,885,350.4z"/>
	<path class="st11" d="M713,356.1c2.5-4.2,6.6-5.5,11.1-6.2c1.5-0.2,3.6,0,4.1-2.1c0.1-0.6-0.3-1.8-0.9-2.1
		c-1.6-1.1-3.5-0.8-5.3-0.3c-0.2,0-0.4,0.1-0.4,0.2c-1.5,2.8-3.8,1.9-6,1.5c-0.9-0.2-0.9-0.8-0.7-1.5c0.8-2.6,2.7-4.2,5.2-5
		c9.5-3.2,15.3,1.3,14.8,11.4c-0.1,2.8,0.1,5.6,0,8.4c0,1.3,1.5,2.9,0.2,3.6c-1.5,0.9-3.6,0.9-5.2-0.1c-0.9-0.5-1-1.5-2.6-0.8
		C718.4,366.8,715.1,365.1,713,356.1L713,356.1z M728.3,355.4c0-1.2,0-2.6-1.8-2c-2.4,0.9-6.1,0.1-6.6,3.9c-0.2,1.9,1.3,2.9,3.3,2.9
		C726.5,360.2,728,358.4,728.3,355.4z"/>
	<path class="st11" d="M529.6,354.3c-1,0-2-0.1-3,0c-1.5,0.3-3.6-1.1-4.3,1.1c-0.5,1.5,0.6,2.8,1.9,3.7c1.6,1.1,3.4,1.4,5.1,0.1
		c0.5-0.4,0.8-1.1,1.3-1.5c2-1.5,4.5-1.1,5.8,0.3c1.2,1.3-0.8,3-2,4c-3.4,3-7.4,3.4-11.7,2.1c-4.2-1.2-6.2-4.2-7-8.2
		c-1.9-9.4,2.9-16.2,11.2-16c6.4,0.2,11.2,5.7,10.6,12c-0.1,1.8-0.8,2.3-2.5,2.3C533.2,354.3,531.4,354.3,529.6,354.3z M526.5,350.6
		c1.1-1.5,4.2,1.4,4.3-2.1c0.1-2.2-1.7-3.4-4-3.5c-2.6-0.1-4.4,1.3-4.6,3.6C522.1,351.7,524.9,349.5,526.5,350.6z"/>
	<path class="st11" d="M633.5,352.8c0,2.7-0.2,5.3,0,8c0.4,4.6-3.4,4.6-4.9,3.1c-2.3-2.2-3.4-0.5-4.9,0.1
		c-6.5,2.8-11.7-0.5-11.8-7.7c-0.1-4.3,0.1-8.6-0.1-13c-0.1-2.2,0.8-2.9,2.9-2.8c2,0,3.6,0.1,3.4,2.8c-0.2,3.8-0.1,7.6,0,11.5
		c0,2.7,0.7,5.2,4,5.2c3.1-0.1,4.8-2,4.8-5.2c0.1-3.7,0.2-7.3,0-11c-0.1-2.3,0.5-3.3,3-3.3c2.5,0,3.7,0.6,3.5,3.4
		C633.3,346.8,633.5,349.8,633.5,352.8z"/>
	<path class="st10" d="M713,356.1c-2.1,0-1.6,2.1-2.3,3.1c-3.4,5.2-9.7,7.2-15.7,4.7c-5.3-2.1-8.3-8.4-6.9-14.5
		c1.5-6.5,6.8-10,13.8-9.3c5.8,0.6,10,5.2,10.5,11.3C712.6,353,711.7,354.7,713,356.1C713,356.1,713,356.1,713,356.1z M705.9,352.7
		c0-3.8-1-7-5.4-7.5c-3.4-0.4-6,2.8-6,7c0,3.8,1.1,7,5.5,7.4C703.4,360,705.8,357,705.9,352.7z"/>
	<path class="st11" d="M778.8,365c-3-0.2-6.2-0.6-8.6-3c-1.1-1.2-3.5-2.7-1.6-4.3c1.3-1.1,4.1-2,5.8,0.3c1.6,2.3,3.8,2.4,6.2,2.1
		c1.3-0.1,2.3-0.6,2.5-2c0.3-1.6-0.9-1.9-2.1-2.2c-2.9-0.9-5.7-1.7-8.5-2.7c-2.9-1-4.2-3.3-4.1-6.2c0.1-2.9,1.5-5.2,4.4-6
		c4.6-1.4,9.2-1.9,13.4,1.1c1.3,0.9,3.1,2.5,2,3.9c-1.1,1.4-3.8,2.1-5.3,0.5c-1.8-1.8-3.8-1.9-5.9-1.7c-1,0.1-2.2,0.3-2.3,1.5
		c-0.1,1.2,0.9,1.6,1.9,1.9c2.1,0.6,4.1,1.2,6.2,1.8c3.9,1.1,7.5,2.6,7,7.5c-0.5,4.8-4.1,6.5-8.3,7.3C780.6,365,779.8,365,778.8,365
		z"/>
	<path class="st11" d="M816.2,340.1c2.1-0.1,4.4,0,6.4,1.4c1.6,1.1,4,2.5,2.8,4.5c-1,1.6-3.8,2.2-5.7,0.3c-1.8-1.8-3.9-1.6-6-1.3
		c-0.8,0.1-1.7,0.3-1.8,1.4c0,0.9,0.6,1.5,1.4,1.8c2.7,0.8,5.5,1.4,8.2,2.3c3.2,1.1,5.7,2.8,5.5,6.7c-0.2,3.7-2.3,5.9-5.5,7
		c-4.6,1.6-9.2,1.4-13.4-1.4c-1.6-1.1-3.9-3.3-2.7-4.6c1.3-1.4,4.4-2.4,6.4,0.4c1.8,2.4,4.3,2.1,6.8,1.5c0.9-0.2,1.9-1,1.8-2.1
		c-0.1-0.9-0.8-1.4-1.7-1.7c-2.2-0.6-4.5-1.3-6.7-1.9c-4.1-1.1-7.2-3.2-6.3-8c0.8-4.6,4.4-5.9,8.5-6.1
		C814.9,340.1,815.4,340.1,816.2,340.1z"/>
	<path class="st10" d="M606.1,352.6C606,359.9,601,365,594,365c-7.4,0-12.3-5.1-12.3-12.7c0.1-7.5,5.1-12.3,12.6-12.2
		C601.6,340.2,606.1,345.1,606.1,352.6z M588.1,352.3c-0.1,4.1,2.4,7.3,5.8,7.4c3.4,0.1,6-2.9,6-7.2c-0.1-3.8-1.2-7-5.7-7.4
		C590.8,344.9,588.2,348.1,588.1,352.3z"/>
	<path class="st10" d="M851.9,353.1c0.1,2-0.1,4.8,0.6,7.3c1.4,4.6-2.2,5-3.9,3.6c-2.8-2.4-4.4-0.3-6.3,0.3c-3.1,1-6,0.8-8.5-1.1
		c-4-3-3.2-9.3,1.5-11.5c1.9-0.9,4.2-1.1,6.2-1.7c1.5-0.5,3.5-0.2,4.3-2c0.4-0.9,0-2.2-1-2.6c-1.9-0.8-3.9-0.9-5.7,0.2
		c-0.4,0.2-0.7,0.7-1,1.1c-1.8,2-4.3,0.8-5.3-0.1c-1.3-1.2,0.5-2.9,1.6-4c2.5-2.6,9.6-3.3,13.7-1.7c4.3,1.6,3.9,5.3,4.2,8.7
		C852.3,350.5,852.1,351.5,851.9,353.1z M846,354.3c0-0.5-0.3-1.6-1.9-0.9c-2.3,1-6.2,0-6.3,4.1c-0.1,2,1.5,2.8,3.4,2.7
		C844.4,360.2,845.9,358.3,846,354.3z"/>
	<path class="st11" d="M867.5,330.9c1.2,0.8,4.1-1.2,4.3,2.2c0.2,2.5-1.3,2.9-3.5,2.7c-1.4-0.1-2.4,0.8-2.5,2.5
		c-0.1,1.8,0.7,2.3,2.4,2.2c1.5-0.1,2.5,0.4,2.5,2.2c0.1,2-0.7,2.8-2.6,2.6c-2.2-0.2-2.3,1.2-2.3,2.9c0,4,0,8,0,12
		c0,2.4,0.4,4.4-3.4,4.3c-3.9-0.1-3.2-2.3-3.2-4.6c0-3.2,0.1-6.3,0-9.5c-0.1-2.1,1-4.7-2.6-5.5c-1.3-0.3-1-3.3-0.4-3.4
		c4.1-1.1,2.8-4.6,3.9-7.2C861.4,331.3,864.3,330.9,867.5,330.9z"/>
	<path class="st11" d="M640.3,352.4c0-3,0-6,0-9c0-1.7,0.4-3.5,2.3-2.8c3.3,1.2,6.3-0.1,9.4-0.5c1.4-0.2,3.5,0,3.2,2
		c-0.2,1.5,0.1,4.5-3.2,3.9c-4-0.7-4.9,1.9-5.1,5c-0.2,3.5-0.3,7-0.1,10.5c0.1,2.7-1.1,2.9-3.3,2.9c-2.2,0-3.4-0.4-3.3-3
		C640.5,358.4,640.3,355.4,640.3,352.4z"/>
	<path class="st11" d="M668.9,352.5c0-2.8,0.2-5.7-0.1-8.5c-0.5-4.6,3.2-4.3,5-3.2c1.8,1.1,2.2,1.4,3.8,0c1.6-1.4,3.8-1.2,5.6-0.2
		c1.4,0.7,0.6,2,0.4,3.1c-0.5,2.4-2,2.3-4.1,2.1c-2.4-0.2-3.6,1.5-3.7,3.8c-0.2,3.8-0.5,7.6-0.3,11.4c0.1,2.7-1,3.3-3.5,3.3
		c-2.7,0.1-3.4-0.9-3.3-3.4C669,358.2,668.9,355.4,668.9,352.5z"/>
	<path class="st12" d="M250.6,238c14.1,6.2,20.2,14.8,19.2,27.9c-0.7,9.5-5,17.1-13.8,21.6c-7.4,3.8-14.6,2.9-21.2-1.7
		c-8.2-5.7-11.1-14.1-11-23.8C226.8,245.4,234.1,238.9,250.6,238z"/>
	<path class="st13" d="M250.6,238c-16.5,0.8-23.8,7.4-26.7,24c-1,0.8-2.2,1.5-3,2.5c-1.8,2.1-3.4,2-5.4,0.2
		c-3.6-3.2-7.5-6.1-11.6-9.3c8.1-6.2,15.9-12.2,23.9-18.3c10.6-8.1,21.3-15.9,31.7-24.2c3.5-2.8,6.3-3.5,10-0.8c1.7,1.2,3.7,2,6,3.2
		C266.9,223.1,258.7,230.5,250.6,238z"/>
	<path class="st13" d="M330.2,169.9c2.5,2.2,3.4,5.3,4.7,8.2c-13.5,8.1-27,16.1-40.5,24.2c-7.9,4.7-7.9,4.7-15.6-1.6
		C296,190.4,313.1,180.1,330.2,169.9z"/>
	<path class="st14" d="M374.6,160.3c-2.6,0.2-2.5-2.2-3.3-3.6c-1.1-1.8,0.4-2.2,1.7-2.6c8.9-3.2,17.7-6.4,26.6-9.7
		c3-1.1,3.3,1.3,4.2,2.8c1.4,2.4-0.5,2.7-2.1,3.2c-8.5,3.1-17,6.2-25.6,9.4C375.6,159.9,375.1,160.1,374.6,160.3z"/>
</g>
</svg>
