<?xml version="1.0" encoding="utf-8"?>
<!-- Generator: Adobe Illustrator 26.3.1, SVG Export Plug-In . SVG Version: 6.00 Build 0)  -->
<svg version="1.1" id="Layer_1" xmlns="http://www.w3.org/2000/svg" xmlns:xlink="http://www.w3.org/1999/xlink" x="0px" y="0px"
	 viewBox="0 0 2034.8 582.2" style="enable-background:new 0 0 2034.8 582.2;" xml:space="preserve">
<style type="text/css">
	.st0{clip-path:url(#SVGID_00000118355774414276423210000009085275161291821231_);}
	.st1{fill:#4EB349;}
</style>
<g>
	<g>
		<defs>
			<rect id="SVGID_1_" x="35.2" y="76.3" width="412.4" height="412.4"/>
		</defs>
		<clipPath id="SVGID_00000089575688088979638090000017381507826751904903_">
			<use xlink:href="#SVGID_1_"  style="overflow:visible;"/>
		</clipPath>
		<g style="clip-path:url(#SVGID_00000089575688088979638090000017381507826751904903_);">
			<defs>
				<rect id="SVGID_00000149343419276752253350000003682585684343725231_" x="35.2" y="76.3" width="412.4" height="412.4"/>
			</defs>
			<clipPath id="SVGID_00000130621654552685727180000001005181234212355716_">
				<use xlink:href="#SVGID_00000149343419276752253350000003682585684343725231_"  style="overflow:visible;"/>
			</clipPath>
			<g style="clip-path:url(#SVGID_00000130621654552685727180000001005181234212355716_);">
				
					<image style="overflow:visible;" width="191" height="191" xlink:href="4F14477B.jpg"  transform="matrix(2.159 0 0 2.159 35.2128 76.2964)">
				</image>
			</g>
		</g>
	</g>
</g>
<g>
	<path class="st1" d="M557.8,234.9v40.7h39.4v-40.7h23.9v105.9h-23.9v-44.3h-39.4v44.3h-24V234.9H557.8z"/>
	<path class="st1" d="M716.7,301.5c0,28.1-20,41-40.5,41c-22.5,0-39.8-14.8-39.8-39.6c0-24.8,16.3-40.7,41-40.7
		C701,262.2,716.7,278.4,716.7,301.5z M661,302.3c0,13.2,5.5,23.1,15.7,23.1c9.3,0,15.2-9.3,15.2-23.1c0-11.5-4.4-23.1-15.2-23.1
		C665.3,279.2,661,291,661,302.3z"/>
	<path class="st1" d="M758.2,242v22h17.1v17.6h-17.1v27.8c0,9.3,2.2,13.5,9.4,13.5c3,0,5.3-0.3,7.1-0.6l0.2,18.1
		c-3.1,1.3-8.8,2-15.6,2c-7.7,0-14.1-2.7-17.9-6.6c-4.4-4.6-6.6-11.9-6.6-22.8v-31.4h-10.2V264h10.2v-16.7L758.2,242z"/>
	<path class="st1" d="M789.1,229.2H813v111.6h-23.9V229.2z"/>
	<path class="st1" d="M857,242.6c0,6.6-5,11.9-12.9,11.9c-7.5,0-12.6-5.3-12.4-11.9c-0.2-6.9,4.9-12.1,12.6-12.1
		C852,230.5,856.9,235.7,857,242.6z M832.3,340.8V264h23.9v76.8H832.3z"/>
	<path class="st1" d="M875.4,288.5c0-9.6-0.3-17.8-0.6-24.5h20.7l1.1,10.5h0.5c3.1-4.9,11-12.3,23.7-12.3c15.7,0,27.5,10.4,27.5,33
		v45.6h-23.9v-42.6c0-9.9-3.5-16.7-12.1-16.7c-6.6,0-10.5,4.6-12.1,9c-0.6,1.4-0.9,3.8-0.9,6v44.3h-23.9V288.5z"/>
	<path class="st1" d="M985.9,310c0.8,9.9,10.5,14.6,21.7,14.6c8.2,0,14.8-1.1,21.2-3.1l3.1,16.2c-7.9,3.1-17.4,4.7-27.8,4.7
		c-26.1,0-41-15.1-41-39.1c0-19.5,12.1-41,38.8-41c24.8,0,34.3,19.3,34.3,38.3c0,4.1-0.5,7.7-0.8,9.4H985.9z M1014,293.7
		c0-5.8-2.5-15.6-13.5-15.6c-10.1,0-14.1,9.1-14.8,15.6H1014z"/>
	<path class="st1" d="M1097.3,255h-28.4v-20.1h81.4V255h-28.9v85.8h-24V255z"/>
	<path class="st1" d="M1153.7,289.3c0-11.3-0.3-18.7-0.6-25.3h20.6l0.8,14.1h0.6c3.9-11.2,13.4-15.9,20.7-15.9c2.2,0,3.3,0,5,0.3
		V285c-1.7-0.3-3.8-0.6-6.4-0.6c-8.8,0-14.8,4.7-16.3,12.1c-0.3,1.6-0.5,3.5-0.5,5.3v39h-23.9V289.3z"/>
	<path class="st1" d="M1255.4,340.8l-1.4-7.7h-0.5c-5,6.1-12.9,9.4-22,9.4c-15.6,0-24.8-11.3-24.8-23.6c0-20,17.9-29.5,45.1-29.4
		v-1.1c0-4.1-2.2-9.9-14-9.9c-7.9,0-16.2,2.7-21.2,5.8l-4.4-15.4c5.3-3,15.9-6.8,29.9-6.8c25.6,0,33.8,15.1,33.8,33.2v26.7
		c0,7.4,0.3,14.5,1.1,18.7H1255.4z M1252.6,304.5c-12.6-0.2-22.3,2.8-22.3,12.1c0,6.1,4.1,9.1,9.4,9.1c6,0,10.8-3.9,12.4-8.8
		c0.3-1.3,0.5-2.7,0.5-4.1V304.5z"/>
	<path class="st1" d="M1294.7,288.5c0-9.6-0.3-17.8-0.6-24.5h20.7l1.1,10.5h0.5c3.1-4.9,11-12.3,23.7-12.3c15.7,0,27.5,10.4,27.5,33
		v45.6h-23.9v-42.6c0-9.9-3.5-16.7-12.1-16.7c-6.6,0-10.5,4.6-12.1,9c-0.6,1.4-0.9,3.8-0.9,6v44.3h-23.9V288.5z"/>
	<path class="st1" d="M1386.6,319.9c4.4,2.7,13.5,5.8,20.6,5.8c7.2,0,10.2-2.5,10.2-6.4s-2.4-5.8-11.3-8.8
		c-15.9-5.3-22-14-21.8-23.1c0-14.3,12.3-25.1,31.3-25.1c9,0,17,2,21.7,4.4l-4.2,16.5c-3.5-1.9-10.1-4.4-16.7-4.4
		c-5.8,0-9.1,2.4-9.1,6.3c0,3.6,3,5.5,12.4,8.8c14.6,5,20.7,12.4,20.9,23.7c0,14.3-11.3,24.8-33.3,24.8c-10.1,0-19-2.2-24.8-5.3
		L1386.6,319.9z"/>
	<path class="st1" d="M1455,289.7c0-10.1-0.3-18.7-0.6-25.8h20.7l1.1,10.7h0.3c5.7-8.2,14.5-12.4,25.6-12.4
		c16.8,0,31.9,14.6,31.9,39.1c0,28-17.8,41.2-34.9,41.2c-9.3,0-16.5-3.8-20-8.8h-0.3v38.2H1455V289.7z M1478.9,307.8
		c0,1.9,0.2,3.6,0.5,5c1.6,6.4,7.1,11.3,14,11.3c10.4,0,16.5-8.6,16.5-21.7c0-12.3-5.5-21.5-16.2-21.5c-6.8,0-12.7,5-14.3,12.1
		c-0.3,1.3-0.5,2.8-0.5,4.2V307.8z"/>
	<path class="st1" d="M1625.3,301.5c0,28.1-20,41-40.5,41c-22.5,0-39.8-14.8-39.8-39.6c0-24.8,16.3-40.7,41-40.7
		C1609.6,262.2,1625.3,278.4,1625.3,301.5z M1569.7,302.3c0,13.2,5.5,23.1,15.7,23.1c9.3,0,15.2-9.3,15.2-23.1
		c0-11.5-4.4-23.1-15.2-23.1C1574,279.2,1569.7,291,1569.7,302.3z"/>
	<path class="st1" d="M1640.1,289.3c0-11.3-0.3-18.7-0.6-25.3h20.6l0.8,14.1h0.6c3.9-11.2,13.4-15.9,20.7-15.9c2.2,0,3.3,0,5,0.3
		V285c-1.7-0.3-3.8-0.6-6.4-0.6c-8.8,0-14.8,4.7-16.3,12.1c-0.3,1.6-0.5,3.5-0.5,5.3v39h-23.9V289.3z"/>
	<path class="st1" d="M1729.9,242v22h17.1v17.6h-17.1v27.8c0,9.3,2.2,13.5,9.4,13.5c3,0,5.3-0.3,7.1-0.6l0.2,18.1
		c-3.1,1.3-8.8,2-15.6,2c-7.7,0-14.1-2.7-17.9-6.6c-4.4-4.6-6.6-11.9-6.6-22.8v-31.4h-10.2V264h10.2v-16.7L1729.9,242z"/>
	<path class="st1" d="M1778.4,310c0.8,9.9,10.5,14.6,21.7,14.6c8.2,0,14.8-1.1,21.2-3.1l3.1,16.2c-7.9,3.1-17.4,4.7-27.8,4.7
		c-26.1,0-41-15.1-41-39.1c0-19.5,12.1-41,38.8-41c24.8,0,34.3,19.3,34.3,38.3c0,4.1-0.5,7.7-0.8,9.4H1778.4z M1806.5,293.7
		c0-5.8-2.5-15.6-13.5-15.6c-10.1,0-14.1,9.1-14.8,15.6H1806.5z"/>
	<path class="st1" d="M1843,289.3c0-11.3-0.3-18.7-0.6-25.3h20.6l0.8,14.1h0.6c3.9-11.2,13.4-15.9,20.7-15.9c2.2,0,3.3,0,5,0.3V285
		c-1.7-0.3-3.8-0.6-6.4-0.6c-8.8,0-14.8,4.7-16.3,12.1c-0.3,1.6-0.5,3.5-0.5,5.3v39H1843V289.3z"/>
	<path class="st1" d="M1902.6,319.9c4.4,2.7,13.5,5.8,20.6,5.8c7.2,0,10.2-2.5,10.2-6.4s-2.4-5.8-11.3-8.8
		c-15.9-5.3-22-14-21.8-23.1c0-14.3,12.3-25.1,31.3-25.1c9,0,17,2,21.7,4.4l-4.2,16.5c-3.5-1.9-10.1-4.4-16.7-4.4
		c-5.8,0-9.1,2.4-9.1,6.3c0,3.6,3,5.5,12.4,8.8c14.6,5,20.7,12.4,20.9,23.7c0,14.3-11.3,24.8-33.3,24.8c-10.1,0-19-2.2-24.8-5.3
		L1902.6,319.9z"/>
</g>
</svg>
