<?xml version="1.0" encoding="utf-8"?>
<!-- Generator: Adobe Illustrator 26.0.0, SVG Export Plug-In . SVG Version: 6.00 Build 0)  -->
<svg version="1.1" id="Layer_1" xmlns="http://www.w3.org/2000/svg" xmlns:xlink="http://www.w3.org/1999/xlink" x="0px" y="0px"
	 viewBox="0 0 225 225" style="enable-background:new 0 0 225 225;" xml:space="preserve">
<style type="text/css">
	.st0{fill:url(#SVGID_1_);}
	.st1{fill:url(#SVGID_00000000218189528976338680000004836149441434081463_);}
	.st2{fill:url(#SVGID_00000021829057638788244440000009856401624534522297_);}
	.st3{fill:url(#SVGID_00000163760706156498186800000016283926024181248950_);}
	.st4{fill:url(#SVGID_00000030465960242037546640000005800564953823098764_);}
	.st5{fill:url(#SVGID_00000065764573502227685540000017023103251708282808_);}
	.st6{fill:url(#SVGID_00000072988564695630314260000015408975051815213972_);}
	.st7{fill:url(#SVGID_00000085936818219892136780000010379732288909303445_);}
	.st8{fill:url(#SVGID_00000021077689395208011660000006115835255145899940_);}
</style>
<g>
	<linearGradient id="SVGID_1_" gradientUnits="userSpaceOnUse" x1="133.7629" y1="224.8108" x2="58.8287" y2="52.7401">
		<stop  offset="0" style="stop-color:#000000;stop-opacity:0"/>
		<stop  offset="1" style="stop-color:#000000;stop-opacity:0.3"/>
	</linearGradient>
	<path class="st0" d="M91.2,197.5C62.4,185,70.4,150.3,83,136.8c15.6-16.7,24.3,0.2,26.9-4.6c2.6-4.8-2.8-17.4-20-8.6
		c-41.6,21.2-38.6,70.6-18.3,82.5c51.3,29.9,104-20.9,104-20.9C154.1,202.8,109.8,205.5,91.2,197.5z"/>
	
		<linearGradient id="SVGID_00000062872648970079833440000011486979499329964438_" gradientUnits="userSpaceOnUse" x1="50.7233" y1="172.112" x2="-5.5578" y2="90.1326">
		<stop  offset="0" style="stop-color:#000000;stop-opacity:0"/>
		<stop  offset="1" style="stop-color:#000000;stop-opacity:0.3"/>
	</linearGradient>
	<path style="fill:url(#SVGID_00000062872648970079833440000011486979499329964438_);" d="M48.3,112.3c0,0-42.1,39.6-17.4,80.3
		c0,0-36.8-21.5-21.7-72.4C18.2,90.2,25.7,112.6,48.3,112.3z"/>
	
		<linearGradient id="SVGID_00000092420467569672550160000006241495979027148976_" gradientUnits="userSpaceOnUse" x1="94.0114" y1="55.2375" x2="94.0396" y2="55.2375" gradientTransform="matrix(0.9687 0.2481 -0.2481 0.9687 -88.8163 120.6571)">
		<stop  offset="0" style="stop-color:#00A2FF"/>
		<stop  offset="1" style="stop-color:#00004F"/>
	</linearGradient>
	<path style="fill:url(#SVGID_00000092420467569672550160000006241495979027148976_);" d="M-11.4,197.5
		C-11.4,197.5-11.4,197.5-11.4,197.5C-11.4,197.5-11.4,197.5-11.4,197.5C-11.4,197.5-11.4,197.5-11.4,197.5z"/>
	
		<radialGradient id="SVGID_00000142162139438388629610000018208992789068757150_" cx="140.0221" cy="11.3445" r="190.4561" gradientUnits="userSpaceOnUse">
		<stop  offset="0" style="stop-color:#FFDB47"/>
		<stop  offset="1" style="stop-color:#FF0038"/>
	</radialGradient>
	<path style="fill:url(#SVGID_00000142162139438388629610000018208992789068757150_);" d="M128.5,142.3c70.5-5.6,96-46.8,91.8-72.4
		c-14.1,18-59.1,35.8-92.8,34.6c76.1-26.8,82.5-89,75.7-99.5c-17.8,37.9-65.8,53.6-143.3,71.7c-71.3,16.7-54,95-42.4,75
		c16.2-28,39.8-56.8,66.9-50.1c15.5,3.8,15.6,13.3,15.6,13.3s21,2.5,10.1,17.3c1.9-8.4-11.2-12.1-26.9,4.6
		c-12.6,13.5-20.6,48.2,8.2,60.7c18.6,8,62.9,5.3,84.4-12.3c-21.9,5.8-55.2-3.9-63.8-15.3c60.5,10.8,85-10.6,89.4-33.1
		C181.6,148.6,153,150.3,128.5,142.3z"/>
	
		<radialGradient id="SVGID_00000180350794267255564410000014495451071114379417_" cx="158.6864" cy="22.2088" r="95.8846" gradientUnits="userSpaceOnUse">
		<stop  offset="0" style="stop-color:#FFAD63"/>
		<stop  offset="1" style="stop-color:#DA0027"/>
	</radialGradient>
	<path style="fill:url(#SVGID_00000180350794267255564410000014495451071114379417_);" d="M129.4,103.7
		c74.1-27.2,80.4-88.3,73.7-98.7c-0.2,0.4-0.4,0.8-0.6,1.3c-3.3,20.5-14.9,41.8-29.8,58.3C149.3,90.4,105.2,109,129.4,103.7z"/>
	
		<radialGradient id="SVGID_00000018198331468244513060000012032907427264375474_" cx="180.8794" cy="90.0878" r="77.2456" gradientUnits="userSpaceOnUse">
		<stop  offset="0" style="stop-color:#FFAD63"/>
		<stop  offset="1" style="stop-color:#DA0027"/>
	</radialGradient>
	<path style="fill:url(#SVGID_00000018198331468244513060000012032907427264375474_);" d="M201,136.9c-7,13.1-20.7,21.5-36.9,25.4
		c-33.6,8-72.8,1-49.6,8.1C173,180,196.8,158.9,201,136.9C201.1,136.8,201.1,136.8,201,136.9z"/>
	
		<radialGradient id="SVGID_00000125598666406476567690000009606970279711341216_" cx="168.8084" cy="56.7517" r="85.1385" gradientUnits="userSpaceOnUse">
		<stop  offset="0" style="stop-color:#FFAD63"/>
		<stop  offset="1" style="stop-color:#DA0027"/>
	</radialGradient>
	<path style="fill:url(#SVGID_00000125598666406476567690000009606970279711341216_);" d="M220.3,70.3
		c-1.1,14.8-15.7,34.2-37.7,47.1c-29,17-78.7,23.4-52.9,24.8C198.8,136.2,224.2,95.8,220.3,70.3z"/>
	
		<radialGradient id="SVGID_00000032612505127438512400000017602499215376411285_" cx="134.4509" cy="128.7167" r="73.2665" gradientUnits="userSpaceOnUse">
		<stop  offset="0" style="stop-color:#FFAD63"/>
		<stop  offset="1" style="stop-color:#DA0027"/>
	</radialGradient>
	<path style="fill:url(#SVGID_00000032612505127438512400000017602499215376411285_);" d="M83,136.8c-12.6,13.5-20.6,48.2,8.2,60.7
		c18.6,8,62.9,5.3,84.4-12.3C118.5,216.6,59.2,186.5,83,136.8z"/>
	
		<radialGradient id="SVGID_00000087401204937073913640000012025223730942335895_" cx="92.2935" cy="121.8459" r="83.3309" gradientUnits="userSpaceOnUse">
		<stop  offset="0" style="stop-color:#FFAD63"/>
		<stop  offset="1" style="stop-color:#DA0027"/>
	</radialGradient>
	<path style="fill:url(#SVGID_00000087401204937073913640000012025223730942335895_);" d="M22.1,125.6c-1.3-35.2,60.5-48.2,70.7-57
		c-10.3,2.7-21.3,5.4-33,8.1c-71.3,16.7-54,95-42.4,75c5.2-8.9,11.1-18,17.7-25.9C32.2,128.1,22.7,134.2,22.1,125.6z"/>
</g>
</svg>
