<?xml version="1.0" encoding="utf-8"?>
<!-- Generator: Adobe Illustrator 27.0.0, SVG Export Plug-In . SVG Version: 6.00 Build 0)  -->
<svg version="1.1" id="Layer_1" xmlns="http://www.w3.org/2000/svg" xmlns:xlink="http://www.w3.org/1999/xlink" x="0px" y="0px"
	 viewBox="0 0 225 225" style="enable-background:new 0 0 225 225;" xml:space="preserve">
<style type="text/css">
	.st0{fill:#B7A21C;}
	.st1{fill:#029240;}
	.st2{fill:#F9FBFA;}
	.st3{fill:#F7FBF9;}
	.st4{fill:#4E9634;}
	.st5{fill:#D5EAE0;}
	.st6{fill:#13934C;}
	.st7{fill:#030504;}
	.st8{fill:#B4A017;}
	.st9{fill:#F70403;}
	.st10{fill:#DE7012;}
	.st11{fill:#EFEFEF;}
	.st12{fill:#F0F5F3;}
	.st13{fill:#0D120F;}
	.st14{fill:#C7D3CD;}
</style>
<g>
	<path class="st0" d="M113.4,3.9c14.2-0.7,28.8,2.9,42.7,8.9c8.2,3.5,16,8.1,23,13.8c5.3,4.2,10.2,8.8,14.8,13.8
		c4.7,5.2,8.6,11,12.4,17c3.8,6.2,6.3,13,9,19.6c2.7,6.6,3.6,13.6,5.1,20.5c1.5,7.5,1.3,15,0.9,22.5c-0.4,8.1-2,16.1-4.5,23.7
		c-2.9,8.8-6.3,17.4-11.4,25.4c-5.9,9.4-12.9,17.8-21.1,25.1c-6.6,5.9-14,10.7-21.8,14.9c-12.1,6.4-24.9,10.3-38.3,11.6
		c-18.6,1.8-36.9-0.4-54.2-7.8c-6.4-2.7-12.6-5.9-18.4-9.8c-8-5.4-15.3-11.7-21.5-18.9c-8.9-10.3-15.7-21.8-20.4-34.6
		c-4.1-11.2-5.9-22.7-6-34.6c-0.1-11.2,0.4-22.3,3.8-33c2.7-8.4,5.9-16.6,10.5-24.2c6-9.9,13.3-18.7,21.7-26.5
		c2.6-2.4,5.6-4.5,8.4-6.6C61.7,14.2,77.2,8.1,94,5C100,3.9,106.1,3.9,113.4,3.9z M202,167.6c0.4-0.3,0.7-0.7,0.7-1.2
		c4.2-6.6,7.4-13.7,9.7-21.2c1.8-5,3.2-10.1,3.7-15.5c1.1-4.5,1.5-9.2,1.9-13.8c0.4-4.4,0-8.7-0.7-13.1c-0.9-6.1-1.5-12.2-3.5-18
		c-1-4.7-2.5-9.2-4.7-13.5c-0.3-0.8-0.5-1.6-0.8-2.3c-10.2-22.1-26.1-39-47.7-50.3C140.4,8.2,118.6,4.7,95.8,8.3
		C68.3,12.6,45.9,26,28.7,47.8C17,62.6,10,79.5,7.4,98.2C7,99,6.9,99.9,6.9,100.9c0,7.4,0,14.9,0,22.3c0,0.9-0.1,1.8,0.4,2.5
		c1.4,10.6,4.2,20.9,8.8,30.6c11.1,23.5,28.3,40.9,51.9,51.8c21.5,9.9,43.8,12.1,66.9,7.2c21.9-4.7,40.3-15.6,55.4-32
		c3-3.3,6-6.6,8.2-10.5c1-0.7,1.5-1.8,2-2.9C201.3,169.4,201.8,168.6,202,167.6z"/>
	<path class="st1" d="M214,84.9c1.9,5.9,2.5,12,3.5,18c0.7,4.4,1,8.7,0.7,13.1c-0.4,4.6-0.9,9.2-1.9,13.8c-2.1-0.2-4.2,0-6,1.3
		c-4.3,3.2-5.7,7.8-6.3,12.8c-0.1,1.1,0.5,1.4,1.4,1.4c2.4,0,4.7,0,7.1,0c-2.3,7.5-5.5,14.6-9.7,21.2c-2.9-0.3-3.4,0-5.1,3.6
		c-1.3,0.2-1.1-1.2-1.8-1.7c-0.5-0.7-1-1.4-1.9-1.8c-2-0.8-4,0-4.9,1.8c-0.9,2.1-0.1,5.3,1.5,6.1c2.1,1,4.4,0.1,5.1-1.8
		c0-0.6,0.1-1.1,0.1-1.7c0.1,0,0.2,0.1,0.3,0.1c0.5,0,1,0,1.4-0.1c0.3,0.6,0.6,1.2,0.9,1.8c-2.2,3.9-5.2,7.2-8.2,10.5
		c-15.1,16.4-33.5,27.3-55.4,32c-23,4.9-45.4,2.7-66.9-7.2c-23.6-10.9-40.9-28.3-51.9-51.8c-4.6-9.7-7.4-20-8.8-30.6
		c0.3,0,0.7,0,1,0c0.1,0.8,0.2,1.5,0.4,2.3c-0.2,0.5,0,0.8,0.4,1c1.5,6.6,9.7,17.3,14.2,18.2c-1-2-1.9-3.8-2.9-5.6
		c-3.1-5.7-5.2-11.8-5.8-18.3c-0.6-7.7,0.5-15.3,2.7-22.7c4.8-16,14.8-28.2,28.3-37.7c0.5,0.1,0.8-0.1,1-0.6
		c1.7-1.4,3.6-2.5,5.6-3.4c0.5,0.1,0.8-0.1,0.9-0.6c2.5-1.2,4.9-2.6,7.5-3.5c0.5,0.2,0.8,0,1-0.5c0.3-0.1,0.7-0.2,1-0.4
		c1.2,0.3,1.9-0.5,2.7-1.1c0.2-0.1,0.5-0.1,0.7-0.2c0.8,0.4,1.3-0.2,1.7-0.7c0.2,0,0.5-0.1,0.7-0.1c0.8,0.4,1.3-0.2,1.7-0.7
		c0.2,0,0.5-0.1,0.7-0.1c1,0.6,1.6,0,2.1-0.7c0.4-0.1,0.8-0.1,1.1-0.2c1,0.6,1.6,0.1,2.1-0.7c0.4,0,0.8-0.1,1.1-0.1
		c1.9,0.4,3.5-0.4,5.3-0.9c0.6,0,1.3-0.1,1.9-0.1c1.7-0.1,3.4-0.1,5-0.7c2-0.1,4.1-0.2,6.1-0.2c2.5,0.5,4.9,0.3,7.4,0.1
		c2.7,0,5.3,0.1,8,0.1c2.8,0.7,5.7,0.6,8.6,0.8c0.4,0,0.8,0,1.2,0.1c1.2,0.6,2.4,0.5,3.6,0.1c0.2,0,0.5,0.1,0.7,0.1
		c0.6,0.9,1.3,0.7,2.1,0.4c0.2,0,0.5,0,0.7,0.1c0.5,0.7,1.1,0.7,1.7,0.2c0.5,0,1,0.1,1.5,0.1c0.7,0.7,1.5,1.3,2.5,0.7
		c0.7,0.1,1.4,0.2,2,0.3c0.7,0.7,1.6,0.9,2.6,0.7c0.4,0,0.7,0.1,1.1,0.1c0.4,0.6,1,0.9,1.7,0.8c0.5,0,1,0.1,1.5,0.1
		c0.5,0.5,1,0.8,1.7,0.7c0.6,0.1,1.2,0.2,1.8,0.3c1.2,1.1,2.7,1.5,4.3,1.7c0.4,0.2,0.9,0.4,1.3,0.5c0.4,0.2,1,0.4,1.3,0
		c0.4-0.6-0.3-0.9-0.8-1.2c-0.9-0.6-1.8-1.2-2.7-1.8c-0.1-0.5-0.5-0.7-0.9-0.6c-1.7-0.9-3.4-1.7-5.2-2.6c-0.2-0.5-0.5-0.7-1-0.5
		c-0.7-0.3-1.5-0.6-2.2-0.9c-0.2-0.4-0.5-0.5-1-0.4c-0.4-0.1-0.7-0.2-1.1-0.4c-0.2-0.4-0.6-0.5-1-0.4c-0.2-0.1-0.4-0.2-0.6-0.2
		c-0.1-0.5-0.3-0.9-0.9-0.4c-0.2,0-0.5-0.1-0.7-0.1c-0.4-0.6-0.8-1.2-1.7-0.7c-0.4,0-0.8-0.1-1.1-0.1c-0.6-0.8-1.4-0.9-2.2-0.8
		c-0.4,0-0.7-0.1-1.1-0.1c-0.6-0.6-1.3-0.8-2.1-0.7c-0.5,0-1-0.1-1.5-0.1c-1-0.7-2.1-1-3.3-0.8c-0.2,0-0.5,0-0.7-0.1
		c-0.2-0.4-0.5-0.5-0.8-0.1c-0.6,0-1.3-0.1-1.9-0.1c-0.7-0.7-1.5-1.2-2.5-0.7c-1.4,0.1-2.7,0-4.1-0.3c-2-0.6-4-1.2-6.1-0.6
		c-5.8,0-11.6,0-17.5,0c-1.6-0.6-3.1-0.3-4.5,0.7c-1.1,0-2.1,0.1-3.2,0.1c-0.9-0.4-1.6,0-2.1,0.7c-0.9,0.1-1.9,0.2-2.8,0.4
		c-1-0.5-1.7,0-2.4,0.6c-0.5,0-1,0.1-1.6,0.1c-0.9-0.2-1.6,0.1-2.2,0.9c-0.4,0-0.8,0.1-1.1,0.1c-0.8-0.4-1.3,0.1-1.7,0.7
		C66.4,45,66,45,65.7,45.1c-0.8-0.5-1.3,0.1-1.7,0.7c-0.2,0-0.5,0.1-0.7,0.1c-0.9-0.5-1.3,0.1-1.7,0.7c-1.2,0.2-2.2,1.1-3.5,1.1
		c-0.5-0.2-0.8,0.1-1,0.6c-0.3,0.1-0.7,0.2-1,0.2c-0.5-0.2-0.8,0-1,0.5c-1.4,0.6-2.8,1.3-4.3,1.9c-0.5-0.2-0.8,0-1,0.5
		c-0.1,0.1-0.2,0.1-0.3,0.2c-0.8,0.2-1.7,0.1-2.1,1.1c-2.8,1.6-5.7,3-8.4,4.8c-10,6.8-18.8,15-24.9,25.6c-2.7,4.7-5.4,9.4-5.9,15
		c-0.3,0-0.6,0-0.9-0.1C10,79.5,17,62.6,28.7,47.8C45.9,26,68.3,12.6,95.8,8.3c22.8-3.6,44.6-0.1,65.1,10.6
		c21.6,11.3,37.5,28.2,47.7,50.3c0.3,0.7,0.5,1.5,0.8,2.3c-8.4,0-16.9,0.1-25.3,0.1c-7.1,0-14.2,0-21.3-0.1c-3.5-0.1-7.8,3-8.5,6.1
		c-1,4.4-1.2,8.9-1.2,13.4c-0.1,0.7-0.6,0.8-1.2,0.8c-3.5-0.1-6.8,1-10.1,2c-0.7-0.2-0.7-0.9-1.1-1.2c0-0.5-0.1-0.9-0.5-1.2
		c0.1-0.5-0.1-0.8-0.5-1c-0.1-0.2-0.1-0.4-0.2-0.6c-0.7-2.6-2-4.9-3.4-7.1c-0.1-0.2-0.2-0.4-0.3-0.6c-0.1-0.7-0.3-1.4-1-1.8
		c-0.2-0.4-0.4-0.7-0.5-1.1c-0.3-0.9-0.7-1.6-1.5-2.1c0-0.1-0.1-0.2-0.2-0.3c0-0.5-0.2-0.7-0.7-0.9c-0.3-0.4-0.6-0.8-0.9-1.2
		c-0.3-1.2-1.2-1.9-2.4-2.3c-0.4-0.5-0.9-0.8-1.5-1c-2.4-2.6-7.2-1.5-9.5,0.9c-0.4,0.4-0.8,0.8-1.2,1.2c-0.5,0.1-0.7,0.4-0.6,0.9
		c-0.1,0.1-0.2,0.1-0.2,0.3c-0.8,0.3-0.9,1-1.1,1.7c-0.1,0.2-0.2,0.4-0.3,0.6c-1.1,1.4-1.5,3-1.6,4.7c-0.1,0.3-0.1,0.5-0.2,0.8
		c-1.4,3.7-1.3,7.6-1.4,11.5c-0.2,3.3-0.2,6.6,0.6,9.8c-0.1,0.5-0.3,1.1-0.8,1.3c-1.8,0.7-3.4,2-5.4,2.1c-0.4-0.9-0.8-1.8-1.3-2.7
		c-2.3-4-6.2-6-10.7-3.7c-3.9,2.1-5.6,6.4-4.4,10.7c0.4,1.3,0.8,2.5,1.2,3.8c-0.3,1-0.8,1.8-1.7,2.2c-6.4,2.9-11.7,7.7-17.5,11.5
		c-4,2.5-7.6,5.6-11.2,8.6c-3.7,3.1-7.3,6.3-11,9.3c-4.3,3.4-7.6,8-12.2,11.1c-0.5,0.4-1.2,0.9-0.4,1.6c1.5,1.5,3,3.1,4.7,4.4
		c2.3,1.7,4.8,3.3,7.3,4.8c2.2,1.2,4.3,2.7,6.8,3.1c1,1.9,4.7,3.7,6.5,3.1c1.7,0.6,3.5,1.2,5.2,1.8c3,1.1,5.9,2.3,9,3.2
		c3.7,1.1,7.3,2.2,11,3.4c2,0.7,3.5,0.3,4.1-1.4c1.2-3.2,2.2-6.5,3.4-9.7c1.9-4.7,3.9-9.4,6.2-14c2.2-4.3,4.5-8.5,6.8-12.7
		c0.8-1.4,1.4-3.1,3.4-3.3c0.5,0.3,0.5,0.7,0.6,1.2c0.2,1.1-1,2.7,0.4,3.3c1.1,0.4,2.4-0.6,3.5-1.1c7.1-3.4,12.4-14.2,10.9-21.8
		c-0.1-0.6-0.5-0.7-0.8-1.1c1.6-4.3,5-6.7,8.8-8.8c0.8,0.4,0.9,1.2,1.3,1.9c0.6,1.2,0.8,2.7,1.8,3.7c0,0.5,0.1,0.9,0.4,1.2
		c1.3,3.1,2.4,6.3,4.2,9.1c0.1,0.2,0.2,0.4,0.3,0.6c1.1,2.8,2.2,5.6,4.2,7.9c0,0.1,0,0.2,0.2,0.3c0,0.5,0.2,0.8,0.6,1
		c0.2,0.3,0.5,0.6,0.7,1c1,2,2.3,3.7,4.3,4.8c0.1,0.1,0.1,0.2,0.3,0.2c0.8,0.8,1.7,1.5,3,1.3c0.2,0,0.5,0,0.7,0
		c1,0.3,1.7,0.1,2.2-0.9c0.4-0.1,0.7-0.3,0.8-0.7c2.3-2.6,3.1-5.8,3.6-9.1c0.1-0.5,0.1-1.1,0.2-1.6c0.7-1.1,0.9-2.4,0.7-3.7
		c0-0.4,0.1-0.8,0.1-1.2c0.5-1.9,0.9-3.7,0.7-5.7c0.3-0.7,0.2-1.3,0.1-2c0.3-2.8,0.7-5.6,0.8-8.4c0.2-5.4,0.4-10.8,0.5-16.1
		c0-1.1,0.5-2.1,0-3.2c0.1-0.7,0.7-1,1.2-1.2c1.9-0.7,3.9-1.3,5.8-1.9c0.6-0.2,1.8,0.2,1.7-0.8c-0.1-0.8-1.1-0.3-1.8-0.4
		c-0.8-0.1-1.6,0.1-2.4,0c-1.3-0.2-2.8,0.5-4-0.5c0-0.3,0.1-0.7,0.1-1c0.3-3.2,0.3-3.2,3.4-3.4c4.9-0.4,9.9-0.4,14.8-0.4
		C194.4,84.9,204.2,84.9,214,84.9z M155.2,56.1c-0.2-0.4-0.5-1-1-0.5c-0.3,0.3,0.1,0.5,0.4,0.7c0.2,0.8,0.7,1.1,1.5,1
		c0.1,0,0.4-0.3,0.4-0.4C156.2,56.3,155.7,56.2,155.2,56.1z M127,178.4c-0.6-0.6-0.7-0.1-0.9,0.4c-1.7,0.4-3.5,0.9-5.2,1.3
		c-0.6-0.6-1-0.5-1.3,0.3c-1,0.2-2.1,0.4-3.1,0.6c-1.3,0.3-2.7,0.6-4,0.9c1.5,0.5,2.9,1.8,4.3,0.1c4.5-0.3,9-1.1,13.3-2.4
		c6.8-2,13.4-4.6,19.5-8.2c6.5-3.8,12.4-8.4,16.8-14.6c0.3-0.4,0.7-0.8,0.3-1.5c-3.5,2.9-6.8,5.9-10.3,8.6
		c-8.1,6.1-16.8,10.8-26.6,13.5c-0.6-0.5-0.7,0-0.8,0.4C128.3,178.1,127.6,178.3,127,178.4z M198.7,105.8c0-4.9,0-9.7,0-14.6
		c0-1,0-1.9-1.4-1.8c-3.8,0.1-7.6,0-11.3,0c-1.1,0-1.5,0.3-1.5,1.5c0.1,16.7,0,33.4,0.1,50.1c0,5.4,0,5.4,5.4,5
		c3.9-0.3,7.7-4,7.7-7.6C197.8,127.6,198.6,116.7,198.7,105.8z M97,73.4c-1.1,0.2-2.4-0.1-3.7,0.8c-4.7,3.2-6.3,7.6-3.9,12.7
		c2,4.4,5.9,6.6,10.9,4.3c3.3-1.5,4.7-4.5,4.9-8.1C105.5,77.8,101.8,73.4,97,73.4z M177.2,168.8c0,1.6,0,3.2,0,4.9
		c0,0.6,0.2,1.1,0.9,1.1c0.7,0,0.9-0.5,0.9-1.1c0-0.7,0-1.4,0.1-2c0.2-1.1,1-1.9,1.9-2.2c1-0.3,1.2,0.9,1.6,1.5c0.6,1,1.2,2,1.7,3
		c0.5,0.9,1.5,1.2,2.3,0.6c0.9-0.6-0.2-1.1-0.4-1.7c-0.3-0.7-0.8-1.2-1.2-1.9c-2.7-3.8-2.5-3.4,0.6-6.6c0.3-0.3,1.2-0.5,0.7-1.2
		c-0.4-0.5-1.2-0.5-1.7-0.1c-0.8,0.7-1.5,1.5-2.3,2.2c-0.9,0.8-1.4,2.5-2.7,2c-1.1-0.4-0.3-1.9-0.5-2.9c0-0.1,0-0.1,0-0.2
		c0-0.6-0.1-1.3-1-1.3c-0.8,0-0.9,0.7-0.9,1.3C177.2,165.8,177.2,167.3,177.2,168.8z M157.5,58c0,0,0-0.1,0-0.1c0,0-0.1,0-0.2,0
		c0,0.1,0,0.1,0,0.2C157.4,58,157.5,58,157.5,58z"/>
	<path class="st2" d="M214,84.9c-9.8,0-19.6,0-29.4,0c-4.9,0-9.9,0-14.8,0.4c-3.1,0.2-3.1,0.2-3.4,3.4c0,0.3-0.1,0.7-0.1,1
		c-4.4,0.4-8.8,0.9-13.2,1.3c0-4.5,0.2-9,1.2-13.4c0.7-3.1,4.9-6.2,8.5-6.1c7.1,0.2,14.2,0.1,21.3,0.1c8.4,0,16.9-0.1,25.3-0.1
		C211.5,75.7,213,80.2,214,84.9z"/>
	<path class="st3" d="M212.5,145.2c-2.4,0-4.7,0-7.1,0c-1,0-1.6-0.3-1.4-1.4c0.6-5,2-9.6,6.3-12.8c1.8-1.3,3.8-1.6,6-1.3
		C215.7,135.1,214.3,140.2,212.5,145.2z"/>
	<path class="st4" d="M7.4,98.2c0.3,0,0.6,0,0.9,0.1c-0.7,4.5-1.4,9.1-1,13.6c0.4,4.7,0.1,9.4,1,14c-0.3,0-0.7,0-1,0
		c-0.5-0.8-0.4-1.7-0.4-2.5c0-7.4,0-14.9,0-22.3C6.9,99.9,7,99,7.4,98.2z"/>
	<path class="st5" d="M197.6,170c1.7-3.5,2.2-3.9,5.1-3.6c-0.1,0.5-0.3,0.9-0.7,1.2c-1.4,0.2-2.5,0.6-1.5,2.3c-0.5,1.1-1,2.2-2,2.9
		c-0.3-0.6-0.6-1.2-0.9-1.8C197.6,170.7,197.6,170.4,197.6,170z"/>
	<path class="st6" d="M200.5,170c-1-1.8,0.1-2.1,1.5-2.3C201.8,168.6,201.3,169.4,200.5,170z"/>
	<path class="st7" d="M55,171.9c-2.6-0.4-4.7-1.9-6.8-3.1c-2.5-1.4-5-3-7.3-4.8c-1.7-1.3-3.2-2.9-4.7-4.4c-0.8-0.7-0.1-1.3,0.4-1.6
		c4.6-3.1,7.9-7.7,12.2-11.1c3.8-3,7.3-6.2,11-9.3c3.6-3,7.3-6.1,11.2-8.6c5.9-3.8,11.1-8.5,17.5-11.5c0.9-0.4,1.4-1.2,1.7-2.2
		c0.3,0.3,0.6,0.5,0.9,0.8c3.9,3.7,8.5,3.5,12-0.5c2.1-2.4,2.6-5.4,2.3-8.5c2-0.2,3.6-1.4,5.4-2.1c0.5-0.2,0.7-0.8,0.8-1.3
		c0.4-0.2,1.1,0.1,1.2-0.6c0,0,0,0,0,0c3.3-1.3,6.5-2.6,9.8-3.7c3-1,3.6-0.7,5.4,1.8c0.9,1.2,0.8,1.9-0.6,2.7
		c-5.2,3-10.3,6.2-15.4,9.3c-0.7,0.4-1.8,0.5-1.7,1.5c0.1,0.9,1.2,0.9,1.8,1.5c1,0.8,1.8,0.2,2.6-0.3c4.6-2.8,9.2-5.5,13.9-8.3
		c2.3-1.4,2.3-1.4,3.3,1c0.8,1.9,1.6,3.8,2.5,5.6c-3.8,2.1-7.2,4.6-8.8,8.8c-4.5,5-8.5,10.3-12.6,15.6c-0.9,1.2-1.9,2.3-2.1,3.9
		c-2,0.2-2.6,1.9-3.4,3.3c-2.3,4.2-4.6,8.4-6.8,12.7c-2.3,4.5-4.3,9.2-6.2,14c-1.3,3.2-2.2,6.5-3.4,9.7c-0.7,1.8-2.1,2.1-4.1,1.4
		c-3.6-1.2-7.3-2.3-11-3.4c-3-0.9-6-2.1-9-3.2c-1.7-0.6-3.5-1.2-5.2-1.8c5-8.7,10.5-17.2,16.8-25c2.3-2.9,2.3-2.8-0.2-5.5
		c-1.1-1.2-1.8-1.2-2.8,0.2C68.7,153.8,61.8,162.9,55,171.9z M99.7,128.2c2.3-2.7,5.1-4.7,7.7-7.1c0.4-0.4,1.3-0.7,0.6-1.6
		c-1.3-1.5-3.6-1.7-5.2-0.6c-5.7,4.4-11.5,8.7-17.2,13.1c-3.7,2.8-3.6,2.7,0,5.6c1.2,0.9,2.1,1.3,3.3,0.2c0.9,0.4,0.7,1.2,0.8,1.9
		c0.9,5.7,6.2,9.2,11.3,7.1c5.4-2.2,7.3-9.8,3.9-14.6C103.5,130.2,101.4,129.4,99.7,128.2z"/>
	<path class="st2" d="M135.7,82.1c0.1,0.2,0.2,0.4,0.3,0.6c0.6,2.6,1.9,4.9,3.4,7.1c0.1,0.2,0.1,0.4,0.2,0.6c-0.2,0.5-0.1,0.9,0.5,1
		c0.3,0.3,0.5,0.7,0.5,1.2c-0.3,0.3-0.2,0.6,0,0.9c1.2,1.6,1.7,3.6,2.6,5.4c0.9,1.8,1.1,4,2.6,5.5c1.4,3.5,3,6.9,5.1,10.1
		c0,0.7,0.5,1,1.1,0.7c0.6-0.3,1.1-0.8,0.5-1.5c0-0.3,0-0.5,0-0.8c0.5-0.4,0.5-0.8,0-1.2c0.1-1.2,0.1-2.4,0.2-3.6
		c1.1-0.5,0.6-1.5,0.6-2.3c0.2-2.2-0.4-4.7,2.1-6.2c0.2-0.1,0.4-0.2,0.5-0.3c1.3,0.4,2.1-0.6,3.1-1c2-0.9,4-1.9,6.1-3
		c0,1.2,0,1.9,0,2.6c0,5.4,0,10.9-0.7,16.3c-0.3,2.6-0.5,5.3,0.2,8c0.1,0.7,0.1,1.3-0.1,2c-1.5,1.7-1,3.7-0.7,5.7
		c0,0.4-0.1,0.8-0.1,1.2c-0.7,1.1-1.2,2.3-0.7,3.7c-0.1,0.5-0.1,1.1-0.2,1.6c-1.6,2.9-2.2,6.2-3.6,9.1c-0.1,0.4-0.4,0.6-0.8,0.7
		c-0.8,0-1.6,0.2-2.2,0.9c-0.2,0-0.5,0-0.7,0c-0.9-0.7-1.9-1.1-3-1.3c-0.1,0-0.2-0.1-0.3-0.2c-1.3-1.8-2.6-3.4-4.3-4.8
		c-0.2-0.3-0.5-0.6-0.7-1c0.2-0.6,0-0.9-0.6-1c-0.1-0.1-0.2-0.1-0.2-0.3c-1-2.8-2.4-5.5-4.2-7.9c-0.1-0.2-0.2-0.4-0.3-0.6
		c0.3-1-0.4-1.9-0.8-2.6c-1.2-2.2-1.4-4.8-3.4-6.5c-0.3-0.3-0.4-0.8-0.4-1.2c0.1-0.1,0.2-0.2,0.2-0.3c-1.5-4.4-4-8.4-5.7-12.7
		c-0.5-1.2-1.4-1.3-2.5-0.6c-3.8,2.4-7.5,4.7-11.3,7c-1.4,0.9-2.9,1.7-4.4,2.4c-0.9,0.4-1.7-0.1-2.1-0.7c-0.5-0.8,0.6-0.9,1-1.1
		c5.2-3.2,10.5-6.3,15.7-9.5c0.6-0.3,1.2-0.6,1.2-1.4c0-2.5-3.6-5.2-6-4.4c-1.3,0.4-2.8,0.8-4,1.4c-2.2,1.1-4.8,1.4-6.6,3.4l0,0
		c-0.4-0.1-0.8-0.2-0.8-0.7c-0.1-1.4-0.3-2.8-0.3-4.2c0.1-4.6-0.1-9.2,1-13.8c0.2-0.6,0.3-1.3-0.2-1.9c0.1-0.3,0.1-0.5,0.2-0.8
		c1.3-1.3,1.1-3.1,1.6-4.7c0.1-0.2,0.2-0.4,0.3-0.6c0.9-0.2,1-1,1.1-1.7c0-0.1,0.1-0.2,0.2-0.3c0.5-0.1,0.7-0.4,0.6-0.9
		c0.4-0.4,0.8-0.8,1.2-1.2c3.1-1.4,6.2-1.9,9.5-0.9c0.6,0.2,1.1,0.5,1.5,1c0.4,1.1,1.3,1.9,2.4,2.3c0.3,0.4,0.6,0.8,0.9,1.2
		c-0.1,0.5,0.2,0.8,0.7,0.9c0.1,0.1,0.2,0.2,0.2,0.3c0.1,1,0.4,1.9,1.5,2.1c0.2,0.4,0.4,0.7,0.5,1.1
		C134.7,81.1,134.9,81.8,135.7,82.1z"/>
	<path class="st8" d="M8.3,125.8c-0.9-4.6-0.7-9.3-1-14c-0.4-4.5,0.3-9.1,1-13.6c0.5-5.6,3.2-10.3,5.9-15C20.2,72.6,29,64.5,39,57.7
		c2.7-1.8,5.6-3.2,8.4-4.8c0.8-0.2,1.7-0.1,2.1-1.1c0.1,0,0.2-0.1,0.3-0.2c0.5,0.1,0.8-0.1,1-0.5c1.4-0.6,2.8-1.3,4.3-1.9
		c0.5,0.2,0.8-0.1,1-0.5c0.3-0.1,0.7-0.2,1-0.2c0.5,0.1,0.8-0.1,1-0.6c1.3,0,2.3-0.9,3.5-1.1c0.7,0.2,1.3-0.2,1.7-0.7
		c0.2,0,0.5-0.1,0.7-0.1c0.8,0.2,1.3-0.1,1.7-0.7c0.4-0.1,0.7-0.1,1.1-0.2c0.8,0.3,1.3,0,1.7-0.7c0.4,0,0.8-0.1,1.1-0.1
		c1,0.4,1.7,0.1,2.2-0.9c0.5,0,1-0.1,1.6-0.1c0.9,0.3,1.7,0.2,2.4-0.6c0.9-0.1,1.9-0.2,2.8-0.4c0.9,0.3,1.7,0.3,2.1-0.7
		c1.1,0,2.1-0.1,3.2-0.1c1.6,0.4,3.1,0.1,4.5-0.7c5.8,0,11.6,0,17.5,0c2,0.7,4,1.2,6.1,0.6c1.3,0.3,2.7,0.3,4.1,0.3
		c0.7,0.8,1.5,1,2.5,0.7c0.6,0,1.3,0.1,1.9,0.1c0.2,0.4,0.5,0.5,0.8,0.1c0.2,0,0.5,0,0.7,0.1c0.9,1,2.1,1.1,3.3,0.8
		c0.5,0,1,0.1,1.5,0.1c0.5,0.8,1.1,1.3,2.1,0.7c0.4,0,0.7,0.1,1.1,0.1c0.6,0.8,1.3,1.2,2.2,0.8c0.4,0,0.8,0.1,1.1,0.1
		c0.4,0.6,1,0.9,1.7,0.7c0.2,0,0.5,0.1,0.7,0.1c0.2,0.4,0.5,0.5,0.9,0.4c0.2,0.1,0.4,0.2,0.6,0.2c0.2,0.5,0.5,0.7,1,0.4
		c0.4,0.1,0.7,0.2,1.1,0.4c0.2,0.5,0.4,0.8,1,0.4c0.7,0.3,1.5,0.6,2.2,0.9c0.2,0.4,0.5,0.7,1,0.5c1.7,0.9,3.4,1.7,5.2,2.6
		c0.1,0.5,0.4,0.8,0.9,0.6c0.9,0.6,1.8,1.2,2.7,1.8c0.4,0.3,1.1,0.5,0.8,1.2c-0.3,0.4-0.9,0.2-1.3,0c-0.4-0.2-0.9-0.4-1.3-0.5
		c-1.2-1.2-2.7-1.4-4.3-1.7c-0.6-0.1-1.2-0.2-1.8-0.3c-0.4-0.6-0.9-1.2-1.7-0.7c-0.5,0-1-0.1-1.5-0.1c-0.3-0.8-0.8-1.4-1.7-0.8
		c-0.4,0-0.7-0.1-1.1-0.1c-0.7-0.7-1.5-1.3-2.6-0.7c-0.7-0.1-1.4-0.2-2-0.3c-0.7-0.6-1.5-1-2.5-0.7c-0.5,0-1-0.1-1.5-0.1
		c-0.5-0.6-1.1-0.5-1.7-0.2c-0.2,0-0.5,0-0.7-0.1c-0.6-0.9-1.3-0.5-2.1-0.4c-0.2,0-0.5-0.1-0.7-0.1c-1.2-0.8-2.4-0.6-3.6-0.1
		c-0.4,0-0.8,0-1.2-0.1c-2.8-1.3-5.7-1.3-8.6-0.8c-2.7,0-5.3-0.1-8-0.1c-2.5-1.1-4.9-0.9-7.4-0.1c-2,0.1-4.1,0.2-6.1,0.2
		c-1.8-0.6-3.4-0.4-5,0.7c-0.6,0-1.3,0.1-1.9,0.1c-1.9-0.6-3.6,0.2-5.3,0.9c-0.4,0-0.8,0.1-1.1,0.1c-0.8-0.2-1.5,0.2-2.1,0.7
		c-0.4,0.1-0.8,0.1-1.1,0.1c-0.9-0.3-1.6,0-2.1,0.7c-0.2,0-0.5,0.1-0.7,0.1c-0.8-0.2-1.3,0.1-1.7,0.7c-0.2,0-0.5,0.1-0.7,0.1
		c-0.8-0.3-1.3,0-1.7,0.7c-0.2,0.1-0.5,0.1-0.7,0.2c-1.2-0.3-1.9,0.4-2.7,1.1c-0.3,0.1-0.7,0.2-1,0.4c-0.5-0.2-0.8,0.1-1,0.5
		c-2.6,0.9-5,2.3-7.5,3.5c-0.5-0.1-0.8,0.2-0.9,0.6c-2,0.9-3.8,2-5.6,3.4c-0.5-0.1-0.8,0.1-1,0.6c-13.5,9.5-23.5,21.7-28.3,37.7
		c-2.2,7.4-3.4,15-2.7,22.7c0.5,6.5,2.7,12.6,5.8,18.3c1,1.8,1.9,3.7,2.9,5.6c-4.5-0.9-12.7-11.6-14.2-18.2c0.2-0.5,0-0.8-0.4-1
		C8.5,127.3,8.4,126.6,8.3,125.8z"/>
	<path class="st3" d="M198.7,105.8c-0.2,10.9-0.9,21.8-1.1,32.7c-0.1,3.6-3.9,7.3-7.7,7.6c-5.4,0.4-5.4,0.4-5.4-5
		c0-16.7,0-33.4-0.1-50.1c0-1.2,0.4-1.6,1.5-1.5c3.8,0,7.6,0,11.3,0c1.4,0,1.4,0.8,1.4,1.8C198.7,96.1,198.7,100.9,198.7,105.8z"/>
	<path class="st9" d="M97,73.4c4.8,0,8.5,4.5,8.2,9.6c-0.2,3.6-1.6,6.6-4.9,8.1c-5,2.3-8.9,0.1-10.9-4.3c-2.4-5.1-0.8-9.5,3.9-12.7
		C94.6,73.3,95.9,73.6,97,73.4z"/>
	<path class="st10" d="M105.4,107.2c0.3,3.1-0.1,6-2.3,8.5c-3.5,4-8.1,4.2-12,0.5c-0.3-0.3-0.6-0.5-0.9-0.8
		c-0.4-1.3-0.8-2.5-1.2-3.8c-1.2-4.3,0.5-8.7,4.4-10.7c4.5-2.3,8.4-0.3,10.7,3.7C104.6,105.3,105,106.3,105.4,107.2z"/>
	<path class="st11" d="M55,171.9c6.8-9.1,13.6-18.1,20.4-27.2c1-1.4,1.7-1.4,2.8-0.2c2.5,2.7,2.5,2.7,0.2,5.5
		c-6.4,7.8-11.8,16.2-16.8,25C59.8,175.6,56,173.8,55,171.9z"/>
	<path class="st12" d="M110.7,142.3c0.2-1.6,1.2-2.7,2.1-3.9c4.1-5.3,8.1-10.6,12.6-15.6c0.3,0.3,0.7,0.5,0.8,1.1
		c1.5,7.6-3.8,18.4-10.9,21.8c-1.1,0.5-2.4,1.5-3.5,1.1c-1.4-0.6-0.2-2.2-0.4-3.3C111.2,143,111.2,142.6,110.7,142.3z"/>
	<path class="st13" d="M155.9,99.2c-0.2,0.1-0.4,0.2-0.5,0.3c-1,0.2-1.8,0.5-2.6,1.2c-2.5,0.5-4.3,2.5-6.7,3.2
		c-0.5-1.1-1-2.2-1.5-3.3c-0.3-0.7-0.1-1,0.7-1.2c3.4-0.8,6.5-2.3,9.7-3.4c0.6-0.2,1.6-0.3,1.2-1.4c-0.4-1-1.1-1.2-2.1-0.9
		c-2.3,0.9-4.6,1.6-6.9,2.4c-3.8,1.4-3.8,1.4-5.5-2.3c3.3-1,6.6-2.1,10.1-2c0.6,0,1.1-0.1,1.2-0.8c4.4-0.4,8.8-0.9,13.2-1.3
		c1.2,1,2.7,0.3,4,0.5c0.8,0.1,1.6,0,2.4,0c0.6,0,1.7-0.4,1.8,0.4c0.1,1.1-1.1,0.6-1.7,0.8c-1.9,0.6-3.9,1.2-5.8,1.9
		c-0.6,0.2-1.1,0.5-1.2,1.2C162.3,95.7,159,97.3,155.9,99.2z"/>
	<path class="st8" d="M120.9,180.1c1.7-0.4,3.5-0.9,5.2-1.3c0.4,0.1,0.7,0,0.9-0.4c0.7-0.1,1.3-0.3,2-0.4c0.4,0.1,0.7,0,0.8-0.4
		c9.8-2.7,18.5-7.4,26.6-13.5c3.5-2.7,6.8-5.7,10.3-8.6c0.4,0.7,0,1.2-0.3,1.5c-4.4,6.2-10.3,10.8-16.8,14.6
		c-6.1,3.6-12.7,6.1-19.5,8.2c-4.3,1.3-8.8,2.1-13.3,2.4c-0.4-0.3-0.3-0.7-0.3-1.1c1-0.2,2.1-0.4,3.1-0.6
		C120.1,180.5,120.5,180.5,120.9,180.1z"/>
	<path class="st14" d="M112.7,103.1c1.8-2,4.4-2.3,6.6-3.4c1.2-0.6,2.7-0.9,4-1.4c2.4-0.8,6.1,1.9,6,4.4c0,0.8-0.7,1.1-1.2,1.4
		c-5.3,3.2-10.5,6.3-15.7,9.5c-0.4,0.3-1.5,0.3-1,1.1c0.4,0.7,1.2,1.2,2.1,0.7c1.5-0.8,3-1.6,4.4-2.4c3.8-2.3,7.6-4.7,11.3-7
		c1.1-0.7,2-0.5,2.5,0.6c1.7,4.3,4.2,8.3,5.7,12.7c0,0.1-0.1,0.2-0.2,0.3c-1-1-1.2-2.5-1.8-3.7c-0.4-0.7-0.5-1.5-1.3-1.9
		c-0.8-1.9-1.6-3.8-2.5-5.6c-1-2.4-1-2.3-3.3-1c-4.6,2.8-9.2,5.6-13.9,8.3c-0.8,0.5-1.6,1.1-2.6,0.3c-0.6-0.5-1.7-0.6-1.8-1.5
		c-0.1-1,1.1-1.1,1.7-1.5c5.1-3.1,10.2-6.2,15.4-9.3c1.4-0.8,1.5-1.4,0.6-2.7c-1.8-2.5-2.4-2.9-5.4-1.8
		C119.2,100.5,116,101.8,112.7,103.1z"/>
	<path class="st5" d="M177.2,168.8c0-1.5,0-3,0-4.5c0-0.6,0-1.3,0.9-1.3c0.8,0,0.9,0.6,1,1.3c0,0.1,0,0.1,0,0.2
		c0.2,1-0.6,2.5,0.5,2.9c1.3,0.5,1.9-1.2,2.7-2c0.8-0.7,1.5-1.6,2.3-2.2c0.5-0.4,1.3-0.4,1.7,0.1c0.5,0.7-0.4,0.9-0.7,1.2
		c-3.2,3.2-3.3,2.8-0.6,6.6c0.4,0.6,0.9,1.2,1.2,1.9c0.3,0.5,1.3,1.1,0.4,1.7c-0.8,0.5-1.7,0.3-2.3-0.6c-0.6-1-1.1-2-1.7-3
		c-0.4-0.6-0.6-1.8-1.6-1.5c-0.9,0.3-1.7,1.1-1.9,2.2c-0.1,0.7,0,1.3-0.1,2c0,0.6-0.2,1.1-0.9,1.1c-0.7,0-0.9-0.5-0.9-1.1
		C177.2,172,177.2,170.4,177.2,168.8z"/>
	<path class="st14" d="M141.8,93.8c1.7,3.7,1.6,3.7,5.5,2.3c2.3-0.8,4.6-1.6,6.9-2.4c1-0.4,1.7-0.2,2.1,0.9c0.4,1.1-0.6,1.2-1.2,1.4
		c-3.2,1.2-6.4,2.6-9.7,3.4c-0.9,0.2-1,0.5-0.7,1.2c0.5,1.1,1,2.2,1.5,3.3c-0.1,0.1-0.2,0.3-0.3,0.4c-1.6-1.5-1.7-3.7-2.6-5.5
		c-0.9-1.8-1.4-3.8-2.6-5.4c-0.2-0.3-0.3-0.6,0-0.9C141.1,92.9,141.1,93.7,141.8,93.8z"/>
	<path class="st5" d="M195.6,172.8c-0.6,1.9-3,2.8-5.1,1.8c-1.7-0.8-2.5-4.1-1.5-6.1c0.9-1.9,2.9-2.6,4.9-1.8
		c0.9,0.3,1.4,1.1,1.9,1.8c-0.6,1,0.6,1.8,0.3,2.8c-0.1,0-0.2,0-0.3-0.1c-0.4,0-0.8,0.1-1.2,0.1c-1.1,0-2.1,0-3.2,0
		c-0.5,0-0.8,0.3-1,0.6c-0.2,0.5,0.3,0.7,0.5,1c1.2,1.4,2.3,0.9,3.4-0.2C194.8,172.6,195.2,172.7,195.6,172.8z M194.2,169.1
		c-0.2-1-0.9-1.5-1.7-1.5c-0.9,0-1.7,0.6-1.8,1.6c-0.1,0.6,0.2,1.3,0.8,1C192.5,169.9,193.7,170.3,194.2,169.1z"/>
	<path class="st14" d="M155.9,99.2c3.1-1.9,6.5-3.5,9.9-4.8c0.6,1,0.1,2.1,0,3.2c-0.1,5.4-0.2,10.8-0.5,16.1
		c-0.1,2.8-0.5,5.6-0.8,8.4c-0.7-2.6-0.5-5.4-0.2-8c0.7-5.4,0.7-10.9,0.7-16.3c0-0.7,0-1.5,0-2.6c-2.1,1-4.1,2.1-6.1,3
		C158,98.6,157.2,99.6,155.9,99.2z"/>
	<path class="st14" d="M112.4,82.5c0.5,0.6,0.4,1.3,0.2,1.9c-1.2,4.5-1,9.2-1,13.8c0,1.4,0.2,2.8,0.3,4.2c0,0.5,0.4,0.6,0.8,0.7
		c-0.1,0.7-0.8,0.5-1.2,0.6c-0.8-3.2-0.7-6.5-0.6-9.8C111.2,90.1,111,86.2,112.4,82.5z"/>
	<path class="st14" d="M127.1,71.4c-3.3-1-6.4-0.6-9.5,0.9C119.8,69.9,124.7,68.8,127.1,71.4z"/>
	<path class="st14" d="M159.1,145.4c1.5-2.9,2.1-6.2,3.6-9.1C162.3,139.6,161.4,142.8,159.1,145.4z"/>
	<path class="st14" d="M137.6,120.9c2,1.7,2.2,4.4,3.4,6.5c0.4,0.7,1.1,1.6,0.8,2.6C140,127.2,138.9,124,137.6,120.9z"/>
	<path class="st4" d="M111.1,47.6c2.9-0.5,5.8-0.5,8.6,0.8C116.8,48.2,114,48.2,111.1,47.6z"/>
	<path class="st14" d="M142.1,130.6c1.8,2.4,3.2,5,4.2,7.9C144.3,136.2,143.2,133.4,142.1,130.6z"/>
	<path class="st4" d="M95.7,47.4c2.5-0.8,4.9-1,7.4,0.1C100.7,47.7,98.2,47.9,95.7,47.4z"/>
	<path class="st4" d="M116.5,181c-0.1,0.4-0.1,0.8,0.3,1.1c-1.4,1.7-2.8,0.4-4.3-0.1C113.9,181.6,115.2,181.3,116.5,181z"/>
	<path class="st14" d="M139.5,89.8c-1.5-2.2-2.9-4.5-3.4-7.1C137.4,84.9,138.7,87.2,139.5,89.8z"/>
	<path class="st14" d="M147.8,140.7c1.7,1.3,3.1,3,4.3,4.8C150.1,144.4,148.8,142.7,147.8,140.7z"/>
	<path class="st14" d="M163.8,129.8c-0.3-2-0.8-3.9,0.7-5.7C164.6,126.1,164.2,127.9,163.8,129.8z"/>
	<path class="st4" d="M111.9,41.2c-2.1,0.6-4.1,0.1-6.1-0.6C108,40,110,40.6,111.9,41.2z"/>
	<path class="st4" d="M88.4,40.6c-1.4,0.7-2.9,1.1-4.5,0.7C85.3,40.4,86.8,40,88.4,40.6z"/>
	<path class="st4" d="M77.5,49.3c1.7-0.7,3.4-1.4,5.3-0.9C81,48.9,79.3,49.7,77.5,49.3z"/>
	<path class="st4" d="M84.7,48.3c1.5-1.1,3.2-1.3,5-0.7C88,48.2,86.3,48.2,84.7,48.3z"/>
	<path class="st14" d="M114.2,77c-0.4,1.6-0.3,3.4-1.6,4.7C112.7,80,113.1,78.3,114.2,77z"/>
	<path class="st14" d="M162.9,134.7c-0.5-1.4,0-2.5,0.7-3.7C163.9,132.3,163.7,133.5,162.9,134.7z"/>
	<path class="st4" d="M196.1,171.2c0.4-1-0.9-1.8-0.3-2.8c0.7,0.5,0.4,1.9,1.8,1.7c0,0.4-0.1,0.7-0.1,1.1
		C197.1,171.1,196.6,171.1,196.1,171.2z"/>
	<path class="st4" d="M146.4,53c1.5,0.3,3.1,0.5,4.3,1.7C149.1,54.5,147.6,54.1,146.4,53z"/>
	<path class="st4" d="M120.9,48.4c1.2-0.5,2.5-0.6,3.6,0.1C123.3,48.9,122.1,49,120.9,48.4z"/>
	<path class="st4" d="M125.3,43.2c-1.2,0.4-2.4,0.3-3.3-0.8C123.2,42.1,124.3,42.4,125.3,43.2z"/>
	<path class="st14" d="M130.9,74.8c-1.1-0.5-1.9-1.2-2.4-2.3C129.7,72.9,130.6,73.6,130.9,74.8z"/>
	<path class="st14" d="M152.4,145.7c1.1,0.1,2.1,0.6,3,1.3C154.1,147.2,153.3,146.5,152.4,145.7z"/>
	<path class="st4" d="M118.5,42.1c-1,0.3-1.8,0.1-2.5-0.7C117.1,40.9,117.8,41.4,118.5,42.1z"/>
	<path class="st4" d="M75.8,42.5c-0.6,0.8-1.5,0.9-2.4,0.6C74.1,42.5,74.8,42.1,75.8,42.5z"/>
	<path class="st4" d="M135.9,50.4c1.1-0.6,1.8,0,2.6,0.7C137.5,51.3,136.6,51.1,135.9,50.4z"/>
	<path class="st4" d="M62.7,53.9c0.8-0.7,1.5-1.4,2.7-1.1C64.6,53.4,63.9,54.1,62.7,53.9z"/>
	<path class="st14" d="M194.6,171.2c0.4,0,0.8-0.1,1.2-0.1c0,0.6-0.1,1.1-0.1,1.7c-0.4-0.1-0.8-0.2-1.2-0.2
		C194.6,172.1,194.8,171.7,194.6,171.2z"/>
	<path class="st4" d="M155.2,56.1c0.5,0.1,1.1,0.2,1.2,0.8c0,0.1-0.2,0.3-0.4,0.4c-0.8,0.1-1.3-0.2-1.5-1
		C154.7,56.3,155,56.2,155.2,56.1z"/>
	<path class="st4" d="M131.3,49.4c1-0.3,1.8,0.1,2.5,0.7C132.8,50.7,132,50.1,131.3,49.4z"/>
	<path class="st4" d="M80.7,41.4c-0.5,1-1.2,1-2.1,0.7C79.1,41.4,79.8,41.1,80.7,41.4z"/>
	<path class="st4" d="M71,51c0.5-0.7,1.2-1,2.1-0.7C72.5,51,71.9,51.6,71,51z"/>
	<path class="st4" d="M71.8,43.2c-0.5,0.9-1.2,1.2-2.2,0.9C70.2,43.4,70.9,43.1,71.8,43.2z"/>
	<path class="st14" d="M156.1,147c0.6-0.7,1.4-0.8,2.2-0.9C157.8,147,157.1,147.3,156.1,147z"/>
	<path class="st14" d="M134.2,79.2c-1.1-0.3-1.4-1.1-1.5-2.1C133.5,77.6,133.9,78.4,134.2,79.2z"/>
	<path class="st4" d="M125.2,48.6c0.7-0.1,1.5-0.5,2.1,0.4C126.5,49.4,125.8,49.5,125.2,48.6z"/>
	<path class="st4" d="M129,44c-1,0.6-1.6,0.1-2.1-0.7C127.7,43.2,128.4,43.4,129,44z"/>
	<path class="st4" d="M132.3,45c-1,0.3-1.7-0.1-2.2-0.8C131,44,131.8,44.2,132.3,45z"/>
	<path class="st4" d="M74.2,50.1c0.6-0.5,1.3-0.9,2.1-0.7C75.8,50.2,75.2,50.7,74.2,50.1z"/>
	<path class="st4" d="M49.5,51.7c-0.4,1-1.3,0.9-2.1,1.1C47.7,51.8,48.7,51.9,49.5,51.7z"/>
	<path class="st4" d="M139.5,51.2c1-0.6,1.4,0,1.7,0.8C140.5,52.1,140,51.8,139.5,51.2z"/>
	<path class="st4" d="M68.5,44.2c-0.4,0.6-0.9,1-1.7,0.7C67.3,44.4,67.7,43.8,68.5,44.2z"/>
	<path class="st4" d="M65.7,45.1c-0.4,0.5-1,0.9-1.7,0.7C64.4,45.2,64.8,44.6,65.7,45.1z"/>
	<path class="st4" d="M135.2,45.8c-0.8,0.2-1.3-0.1-1.7-0.7C134.3,44.6,134.7,45.2,135.2,45.8z"/>
	<path class="st4" d="M68.5,51.8c0.4-0.6,0.9-1,1.7-0.7C69.8,51.6,69.4,52.2,68.5,51.8z"/>
	<path class="st4" d="M128.1,49.1c0.6-0.2,1.2-0.4,1.7,0.2C129.1,49.8,128.6,49.8,128.1,49.1z"/>
	<path class="st4" d="M66.1,52.6c0.4-0.7,0.9-1,1.7-0.7C67.4,52.4,66.9,53,66.1,52.6z"/>
	<path class="st14" d="M135.7,82.1c-0.9-0.3-1-1-1-1.8C135.4,80.7,135.6,81.4,135.7,82.1z"/>
	<path class="st14" d="M115.5,74.7c0,0.8-0.1,1.5-1.1,1.7C114.6,75.7,114.8,75,115.5,74.7z"/>
	<path class="st4" d="M142.8,52.1c0.9-0.6,1.3,0.1,1.7,0.7C143.8,52.9,143.2,52.6,142.8,52.1z"/>
	<path class="st4" d="M63.2,45.9c-0.4,0.5-1,0.9-1.7,0.7C61.9,46,62.4,45.5,63.2,45.9z"/>
	<path class="st4" d="M120.9,180.1c-0.3,0.4-0.8,0.4-1.3,0.3C119.9,179.6,120.3,179.5,120.9,180.1z"/>
	<path class="st14" d="M140.2,91.4c-0.6-0.1-0.7-0.5-0.5-1C140,90.6,140.2,90.9,140.2,91.4z"/>
	<path class="st4" d="M143.7,49.1c-0.5,0.1-0.8-0.1-1-0.5C143.2,48.4,143.5,48.6,143.7,49.1z"/>
	<path class="st14" d="M146.5,138.7c0.6,0.1,0.8,0.5,0.6,1C146.7,139.5,146.5,139.2,146.5,138.7z"/>
	<path class="st4" d="M121.3,42.4c-0.3,0.4-0.6,0.3-0.8-0.1C120.8,41.9,121.1,42,121.3,42.4z"/>
	<path class="st4" d="M52.2,58.9c0.1-0.5,0.4-0.7,0.9-0.6C53,58.7,52.7,59,52.2,58.9z"/>
	<path class="st4" d="M149.8,52.3c-0.5,0.2-0.8-0.1-0.9-0.6C149.3,51.6,149.6,51.8,149.8,52.3z"/>
	<path class="st14" d="M132.5,76.8c-0.5-0.1-0.7-0.4-0.7-0.9C132.3,76.1,132.5,76.3,132.5,76.8z"/>
	<path class="st4" d="M50.8,51c-0.2,0.4-0.5,0.7-1,0.5C49.9,51,50.3,50.8,50.8,51z"/>
	<path class="st4" d="M56.1,48.6c-0.2,0.4-0.5,0.7-1,0.5C55.2,48.6,55.5,48.4,56.1,48.6z"/>
	<path class="st14" d="M116.4,73.5c0,0.5-0.1,0.8-0.6,0.9C115.7,73.9,115.9,73.6,116.4,73.5z"/>
	<path class="st4" d="M45.7,62.9c0.1-0.5,0.4-0.7,1-0.6C46.6,62.8,46.2,63,45.7,62.9z"/>
	<path class="st4" d="M138.4,46.9c-0.5,0.3-0.8,0.1-1-0.4C137.8,46.4,138.2,46.5,138.4,46.9z"/>
	<path class="st4" d="M60.7,54.7c0.2-0.4,0.5-0.6,1-0.5C61.5,54.8,61.2,54.9,60.7,54.7z"/>
	<path class="st4" d="M58.1,47.7c-0.2,0.5-0.4,0.7-1,0.6C57.2,47.8,57.5,47.6,58.1,47.7z"/>
	<path class="st4" d="M136.8,46.3c-0.4,0.1-0.7,0-0.9-0.4C136.4,45.4,136.6,45.8,136.8,46.3z"/>
	<path class="st4" d="M140.4,47.7c-0.5,0.3-0.8,0.1-1-0.4C139.9,47.2,140.2,47.3,140.4,47.7z"/>
	<path class="st4" d="M8.6,128.1c0.4,0.2,0.7,0.5,0.4,1C8.6,128.9,8.4,128.6,8.6,128.1z"/>
	<path class="st4" d="M129.8,177.5c-0.1,0.4-0.4,0.5-0.8,0.4C129.1,177.5,129.2,177,129.8,177.5z"/>
	<path class="st4" d="M127,178.4c-0.2,0.4-0.5,0.5-0.9,0.4C126.2,178.3,126.4,177.8,127,178.4z"/>
	<path class="st8" d="M155.2,56.1c-0.2,0.1-0.4,0.1-0.6,0.2c-0.3-0.2-0.7-0.4-0.4-0.7C154.7,55.1,154.9,55.7,155.2,56.1z"/>
	<path class="st4" d="M157.5,58c0,0-0.1,0-0.1,0.1c0-0.1,0-0.1,0-0.2c0.1,0,0.1,0,0.2,0C157.5,57.9,157.5,57.9,157.5,58z"/>
	<path class="st1" d="M99.7,128.2c1.8,1.3,3.8,2,5.2,4c3.3,4.8,1.5,12.4-3.9,14.6c-5.1,2.1-10.4-1.5-11.3-7.1
		c-0.1-0.7,0.1-1.5-0.8-1.9c0.4-0.8,0.9-1.4,1-2.4c0.2-1.5,0.9-2.8,1.9-3.9C93.8,129,96.4,127.8,99.7,128.2z"/>
	<path class="st11" d="M99.7,128.2c-3.3-0.4-5.8,0.8-7.9,3.3c-1,1.2-1.7,2.4-1.9,3.9c-0.1,0.9-0.6,1.6-1,2.4
		c-1.2,1.1-2.2,0.7-3.3-0.2c-3.7-2.9-3.7-2.9,0-5.6c5.7-4.3,11.5-8.7,17.2-13.1c1.6-1.2,3.9-0.9,5.2,0.6c0.7,0.9-0.1,1.2-0.6,1.6
		C104.8,123.4,101.9,125.5,99.7,128.2z"/>
	<path class="st6" d="M145.8,104.3c0.1-0.1,0.2-0.3,0.3-0.4c2.4-0.7,4.2-2.7,6.7-3.2c0.1,2.4-0.7,4.9-0.2,7.3
		c-0.1,1.2-0.1,2.4-0.2,3.6c-0.4,0.4-0.4,0.8,0,1.2c0,0.3,0,0.5,0,0.8c-0.4,0.6-0.9,0.9-1.6,0.8
		C148.8,111.3,147.2,107.8,145.8,104.3z"/>
	<path class="st14" d="M152.7,108c-0.6-2.4,0.3-4.9,0.2-7.3c0.7-0.7,1.6-1,2.6-1.2c-2.5,1.5-1.9,3.9-2.1,6.2
		C153.2,106.4,153.8,107.5,152.7,108z"/>
	<path class="st14" d="M150.9,114.4c0.7,0.1,1.2-0.2,1.6-0.8c0.7,0.8,0.1,1.3-0.5,1.5C151.4,115.4,151,115.1,150.9,114.4z"/>
	<path class="st14" d="M152.5,112.8c-0.3-0.4-0.3-0.8,0-1.2C153,112,153,112.4,152.5,112.8z"/>
	<path class="st6" d="M194.6,171.2c0.2,0.5,0,0.9-0.2,1.3c-1.1,1.1-2.2,1.6-3.4,0.2c-0.2-0.3-0.8-0.5-0.5-1c0.2-0.4,0.5-0.6,1-0.6
		C192.5,171.2,193.6,171.2,194.6,171.2z"/>
	<path class="st6" d="M194.2,169.1c-0.5,1.2-1.8,0.9-2.7,1.2c-0.7,0.2-0.9-0.5-0.8-1c0.1-1,0.8-1.6,1.8-1.6
		C193.3,167.6,194,168.1,194.2,169.1z"/>
</g>
</svg>
