<?xml version="1.0" encoding="utf-8"?>
<!-- Generator: Adobe Illustrator 26.0.0, SVG Export Plug-In . SVG Version: 6.00 Build 0)  -->
<svg version="1.1" id="Layer_1" xmlns="http://www.w3.org/2000/svg" xmlns:xlink="http://www.w3.org/1999/xlink" x="0px" y="0px"
	 viewBox="0 0 225 225" style="enable-background:new 0 0 225 225;" xml:space="preserve">
<style type="text/css">
	.st0{fill:#FFFFFF;}
	.st1{fill:url(#SVGID_1_);}
</style>
<g>
	<path class="st0" d="M92.8,200.1c-29.4-12.7-21.2-48.2-8.4-61.9c16-17,24.8,0.2,27.5-4.7c2.7-4.9-2.9-17.7-20.4-8.8
		c-42.5,21.6-39.5,72.1-18.7,84.2c52.4,30.6,106.1-21.4,106.1-21.4C157.1,205.5,111.8,208.3,92.8,200.1z"/>
	<path class="st0" d="M49,113.1c0,0-43,40.4-17.7,82c0,0-37.5-22-22.1-73.9C18.3,90.5,25.9,113.4,49,113.1z"/>
	
		<linearGradient id="SVGID_1_" gradientUnits="userSpaceOnUse" x1="94.1141" y1="57.8897" x2="94.1429" y2="57.8897" gradientTransform="matrix(0.9687 0.2481 -0.2481 0.9687 -88.8163 120.6571)">
		<stop  offset="0" style="stop-color:#4898D3"/>
		<stop  offset="1" style="stop-color:#17154C"/>
	</linearGradient>
	<path class="st1" d="M-12,200.1C-12,200.1-12,200.1-12,200.1C-12,200.1-12,200.1-12,200.1C-12,200.1-12,200.1-12,200.1z"/>
	<path d="M130.9,143.7c71.9-5.7,98-47.7,93.7-74c-14.4,18.4-60.4,36.5-94.8,35.4C207.4,77.7,213.9,14.3,207,3.6
		c-18.1,38.7-67.2,54.7-146.3,73.2c-72.8,17.1-55.1,97-43.3,76.6c16.5-28.5,40.7-58,68.3-51.2c15.9,3.9,15.9,13.6,15.9,13.6
		s21.5,2.5,10.4,17.7c1.9-8.5-11.5-12.4-27.5,4.7c-12.9,13.7-21,49.2,8.4,61.9c19,8.2,64.2,5.5,86.1-12.6
		c-22.3,5.9-56.3-3.9-65.2-15.6c61.8,11.1,86.8-10.8,91.2-33.8C185.1,150.2,155.9,151.9,130.9,143.7z"/>
	<path d="M131.8,104.4C207.5,76.6,213.9,14.2,207,3.6c-0.2,0.4-0.4,0.9-0.6,1.3c-3.4,21-15.2,42.7-30.4,59.5
		C152.1,90.7,107.1,109.7,131.8,104.4z"/>
	<path d="M204.9,138.2c-7.2,13.4-21.1,22-37.7,25.9c-34.3,8.2-74.3,1-50.6,8.3C176.3,182.3,200.6,160.7,204.9,138.2
		C205,138.1,205,138.2,204.9,138.2z"/>
	<path d="M224.6,70.2c-1.2,15.1-16,34.9-38.5,48.1c-29.6,17.4-80.4,23.9-54,25.3C202.7,137.5,228.6,96.3,224.6,70.2z"/>
	<path d="M84.5,138.1c-12.9,13.7-21,49.2,8.4,61.9c19,8.2,64.2,5.5,86.1-12.6C120.6,219.6,60.2,188.8,84.5,138.1z"/>
	<path d="M22.2,126.6C21,90.7,84,77.4,94.4,68.5c-10.6,2.8-21.8,5.5-33.7,8.3c-72.8,17.1-55.1,97-43.3,76.6
		c5.3-9.1,11.4-18.4,18.1-26.5C32.6,129.2,22.9,135.5,22.2,126.6z"/>
</g>
</svg>
