<?xml version="1.0" encoding="utf-8"?>
<!-- Generator: Adobe Illustrator 26.0.0, SVG Export Plug-In . SVG Version: 6.00 Build 0)  -->
<svg version="1.1" id="Layer_1" xmlns="http://www.w3.org/2000/svg" xmlns:xlink="http://www.w3.org/1999/xlink" x="0px" y="0px"
	 viewBox="0 0 225 225" style="enable-background:new 0 0 225 225;" xml:space="preserve">
<style type="text/css">
	.st0{fill:url(#SVGID_1_);}
	.st1{fill:url(#SVGID_00000062876757967324478810000005205700672136623039_);}
	.st2{fill:url(#SVGID_00000140727927185197223750000008634706029441620867_);}
	.st3{fill:url(#SVGID_00000042718247029284792310000000494902560495760531_);}
	.st4{fill:url(#SVGID_00000002361331965442324820000011262648268611124110_);}
	.st5{fill:url(#SVGID_00000145024739870285791020000016982695644162796990_);}
	.st6{fill:url(#SVGID_00000112594410284988628460000004473284563680853426_);}
	.st7{fill:url(#SVGID_00000032621740968440749480000003016859299736300976_);}
	.st8{fill:url(#SVGID_00000179613297103946042330000011430743189000643459_);}
</style>
<g>
	<linearGradient id="SVGID_1_" gradientUnits="userSpaceOnUse" x1="134.0315" y1="227.1519" x2="59.0973" y2="55.0812">
		<stop  offset="0" style="stop-color:#000000;stop-opacity:0"/>
		<stop  offset="1" style="stop-color:#000000;stop-opacity:0.3"/>
	</linearGradient>
	<path class="st0" d="M91.5,199.8c-28.8-12.4-20.8-47.2-8.2-60.7c15.6-16.7,24.3,0.2,26.9-4.6c2.6-4.8-2.8-17.4-20-8.6
		c-41.6,21.2-38.6,70.6-18.3,82.5c51.3,29.9,104-20.9,104-20.9C154.4,205.2,110.1,207.9,91.5,199.8z"/>
	
		<linearGradient id="SVGID_00000171682866187580077860000006890248184827551384_" gradientUnits="userSpaceOnUse" x1="50.992" y1="174.4531" x2="-5.2892" y2="92.4737">
		<stop  offset="0" style="stop-color:#000000;stop-opacity:0"/>
		<stop  offset="1" style="stop-color:#000000;stop-opacity:0.3"/>
	</linearGradient>
	<path style="fill:url(#SVGID_00000171682866187580077860000006890248184827551384_);" d="M48.6,114.7c0,0-42.1,39.6-17.4,80.3
		c0,0-36.8-21.5-21.7-72.4C18.5,92.5,25.9,114.9,48.6,114.7z"/>
	
		<linearGradient id="SVGID_00000182499910420771404200000003299727840329575584_" gradientUnits="userSpaceOnUse" x1="94.8525" y1="57.4388" x2="94.8807" y2="57.4388" gradientTransform="matrix(0.9687 0.2481 -0.2481 0.9687 -88.8163 120.6571)">
		<stop  offset="0" style="stop-color:#00A2FF"/>
		<stop  offset="1" style="stop-color:#00004F"/>
	</linearGradient>
	<path style="fill:url(#SVGID_00000182499910420771404200000003299727840329575584_);" d="M-11.2,199.9
		C-11.2,199.9-11.2,199.9-11.2,199.9C-11.2,199.8-11.2,199.8-11.2,199.9C-11.2,199.8-11.2,199.8-11.2,199.9z"/>
	
		<radialGradient id="SVGID_00000116925142239953917500000002325814373281315978_" cx="140.2907" cy="13.6856" r="190.4561" gradientUnits="userSpaceOnUse">
		<stop  offset="0" style="stop-color:#FFDB47"/>
		<stop  offset="1" style="stop-color:#FF0038"/>
	</radialGradient>
	<path style="fill:url(#SVGID_00000116925142239953917500000002325814373281315978_);" d="M128.8,144.6c70.5-5.6,96-46.8,91.8-72.4
		c-14.1,18-59.1,35.8-92.8,34.6c76.1-26.8,82.5-89,75.7-99.5c-17.8,37.9-65.8,53.6-143.3,71.7c-71.3,16.7-54,95-42.4,75
		c16.2-28,39.8-56.8,66.9-50.1c15.5,3.8,15.6,13.3,15.6,13.3s21,2.5,10.1,17.3c1.9-8.4-11.2-12.1-26.9,4.6
		c-12.6,13.5-20.6,48.2,8.2,60.7c18.6,8,62.9,5.3,84.4-12.3c-21.9,5.8-55.2-3.9-63.8-15.3c60.5,10.8,85-10.6,89.4-33.1
		C181.8,151,153.3,152.6,128.8,144.6z"/>
	
		<radialGradient id="SVGID_00000063602661250365492000000013690954388274375858_" cx="158.955" cy="24.5499" r="95.8846" gradientUnits="userSpaceOnUse">
		<stop  offset="0" style="stop-color:#FFAD63"/>
		<stop  offset="1" style="stop-color:#DA0027"/>
	</radialGradient>
	<path style="fill:url(#SVGID_00000063602661250365492000000013690954388274375858_);" d="M129.7,106.1
		c74.1-27.2,80.4-88.3,73.7-98.7c-0.2,0.4-0.4,0.8-0.6,1.3c-3.3,20.5-14.9,41.8-29.8,58.3C149.6,92.7,105.5,111.3,129.7,106.1z"/>
	
		<radialGradient id="SVGID_00000039113281906188675920000009508088099675919291_" cx="181.1481" cy="92.4289" r="77.2456" gradientUnits="userSpaceOnUse">
		<stop  offset="0" style="stop-color:#FFAD63"/>
		<stop  offset="1" style="stop-color:#DA0027"/>
	</radialGradient>
	<path style="fill:url(#SVGID_00000039113281906188675920000009508088099675919291_);" d="M201.3,139.2c-7,13.1-20.7,21.5-36.9,25.4
		c-33.6,8-72.8,1-49.6,8.1C173.3,182.4,197.1,161.3,201.3,139.2C201.4,139.2,201.3,139.2,201.3,139.2z"/>
	
		<radialGradient id="SVGID_00000171700844799553298780000001651617081451967626_" cx="169.077" cy="59.0928" r="85.1385" gradientUnits="userSpaceOnUse">
		<stop  offset="0" style="stop-color:#FFAD63"/>
		<stop  offset="1" style="stop-color:#DA0027"/>
	</radialGradient>
	<path style="fill:url(#SVGID_00000171700844799553298780000001651617081451967626_);" d="M220.6,72.6
		c-1.1,14.8-15.7,34.2-37.7,47.1c-29,17-78.7,23.4-52.9,24.8C199.1,138.6,224.5,98.1,220.6,72.6z"/>
	
		<radialGradient id="SVGID_00000098191110924126824050000014738100590949339541_" cx="134.7195" cy="131.0578" r="73.2665" gradientUnits="userSpaceOnUse">
		<stop  offset="0" style="stop-color:#FFAD63"/>
		<stop  offset="1" style="stop-color:#DA0027"/>
	</radialGradient>
	<path style="fill:url(#SVGID_00000098191110924126824050000014738100590949339541_);" d="M83.3,139.1
		c-12.6,13.5-20.6,48.2,8.2,60.7c18.6,8,62.9,5.3,84.4-12.3C118.7,218.9,59.5,188.8,83.3,139.1z"/>
	
		<radialGradient id="SVGID_00000169522269076718611660000011637882532908490881_" cx="92.5622" cy="124.187" r="83.3309" gradientUnits="userSpaceOnUse">
		<stop  offset="0" style="stop-color:#FFAD63"/>
		<stop  offset="1" style="stop-color:#DA0027"/>
	</radialGradient>
	<path style="fill:url(#SVGID_00000169522269076718611660000011637882532908490881_);" d="M22.4,127.9c-1.3-35.2,60.5-48.2,70.7-57
		c-10.3,2.7-21.3,5.4-33,8.1c-71.3,16.7-54,95-42.4,75c5.2-8.9,11.1-18,17.7-25.9C32.5,130.4,23,136.5,22.4,127.9z"/>
</g>
</svg>
